<mxfile modified="2020-08-25T06:20:10.105Z" host="16f29c43-14cc-4ff1-a349-fb44890cc839" agent="5.0 (Windows NT 10.0; Win64; x64) AppleWebKit/537.36 (KHTML, like Gecko) Code/1.48.1 Chrome/78.0.3904.130 Electron/7.3.2 Safari/537.36" etag="fT2q64f3YAPU7-_jwA0S" version="13.1.3" pages="2">
    <diagram id="WI9T0HZ2pTsCkuznbFz-" name="Page-1">
        <mxGraphModel dx="892" dy="685" grid="1" gridSize="10" guides="1" tooltips="1" connect="1" arrows="1" fold="1" page="1" pageScale="1" pageWidth="1169" pageHeight="827" math="0" shadow="0">
            <root>
                <mxCell id="0"/>
                <mxCell id="1" parent="0"/>
                <mxCell id="DpS6iWFYVrVHI2XnOxSI-20" style="edgeStyle=orthogonalEdgeStyle;rounded=0;orthogonalLoop=1;jettySize=auto;html=1;entryX=0.5;entryY=0.985;entryDx=0;entryDy=0;entryPerimeter=0;" parent="1" source="rbMpHbroR3ne59Me33Iv-5" target="rbMpHbroR3ne59Me33Iv-4" edge="1">
                    <mxGeometry relative="1" as="geometry"/>
                </mxCell>
                <mxCell id="DpS6iWFYVrVHI2XnOxSI-23" style="edgeStyle=orthogonalEdgeStyle;rounded=0;orthogonalLoop=1;jettySize=auto;html=1;entryX=0.5;entryY=1;entryDx=0;entryDy=0;entryPerimeter=0;" parent="1" source="swq4_WMoCDQynXBAzhwi-30" target="8ws5QArpv4ClrEHblM27-17" edge="1">
                    <mxGeometry relative="1" as="geometry"/>
                </mxCell>
                <mxCell id="rbMpHbroR3ne59Me33Iv-5" value="Azure AD" style="verticalLabelPosition=bottom;html=1;verticalAlign=top;align=center;strokeColor=none;fillColor=#00BEF2;shape=mxgraph.azure.azure_active_directory;" parent="1" vertex="1">
                    <mxGeometry x="173.81" y="491.01" width="49.38" height="51.98" as="geometry"/>
                </mxCell>
                <mxCell id="DpS6iWFYVrVHI2XnOxSI-7" style="edgeStyle=orthogonalEdgeStyle;rounded=0;orthogonalLoop=1;jettySize=auto;html=1;" parent="1" source="swq4_WMoCDQynXBAzhwi-52" target="rbMpHbroR3ne59Me33Iv-14" edge="1">
                    <mxGeometry relative="1" as="geometry"/>
                </mxCell>
                <mxCell id="rbMpHbroR3ne59Me33Iv-14" value="Container&lt;br&gt;Registry" style="aspect=fixed;html=1;points=[];align=center;image;fontSize=12;image=img/lib/mscae/Container_Registries.svg;spacingTop=0;" parent="1" vertex="1">
                    <mxGeometry x="635.98" y="233.20000000000002" width="60" height="51.6" as="geometry"/>
                </mxCell>
                <mxCell id="DpS6iWFYVrVHI2XnOxSI-15" style="edgeStyle=orthogonalEdgeStyle;rounded=0;orthogonalLoop=1;jettySize=auto;html=1;" parent="1" source="swq4_WMoCDQynXBAzhwi-62" edge="1">
                    <mxGeometry relative="1" as="geometry">
                        <Array as="points"/>
                        <mxPoint x="681.9999999999998" y="233.20000000000005" as="targetPoint"/>
                    </mxGeometry>
                </mxCell>
                <mxCell id="DpS6iWFYVrVHI2XnOxSI-5" style="edgeStyle=orthogonalEdgeStyle;rounded=0;orthogonalLoop=1;jettySize=auto;html=1;" parent="1" source="swq4_WMoCDQynXBAzhwi-38" target="rbMpHbroR3ne59Me33Iv-1" edge="1">
                    <mxGeometry relative="1" as="geometry">
                        <Array as="points">
                            <mxPoint x="313" y="259"/>
                            <mxPoint x="313" y="259"/>
                        </Array>
                    </mxGeometry>
                </mxCell>
                <mxCell id="DpS6iWFYVrVHI2XnOxSI-1" style="edgeStyle=orthogonalEdgeStyle;rounded=0;orthogonalLoop=1;jettySize=auto;html=1;" parent="1" source="9wFFtJh7rGk8V49Acx62-1" target="rbMpHbroR3ne59Me33Iv-1" edge="1">
                    <mxGeometry relative="1" as="geometry">
                        <Array as="points">
                            <mxPoint x="346" y="170"/>
                            <mxPoint x="346" y="170"/>
                        </Array>
                    </mxGeometry>
                </mxCell>
                <mxCell id="9wFFtJh7rGk8V49Acx62-1" value="Azure Boards" style="aspect=fixed;html=1;points=[];align=center;image;fontSize=12;image=img/lib/mscae/Azure_Boards.svg;" parent="1" vertex="1">
                    <mxGeometry x="323.25" y="91" width="45" height="45" as="geometry"/>
                </mxCell>
                <mxCell id="DpS6iWFYVrVHI2XnOxSI-3" style="edgeStyle=orthogonalEdgeStyle;rounded=0;orthogonalLoop=1;jettySize=auto;html=1;" parent="1" source="swq4_WMoCDQynXBAzhwi-32" edge="1">
                    <mxGeometry relative="1" as="geometry">
                        <mxPoint x="473" y="259" as="targetPoint"/>
                    </mxGeometry>
                </mxCell>
                <mxCell id="rbMpHbroR3ne59Me33Iv-32" value="Azure Policy" style="shape=image;verticalLabelPosition=bottom;verticalAlign=top;imageAspect=0;aspect=fixed;image=data:image/svg+xml,PHN2ZyB4bWxuczpkYz0iaHR0cDovL3B1cmwub3JnL2RjL2VsZW1lbnRzLzEuMS8iIHhtbG5zOmNjPSJodHRwOi8vY3JlYXRpdmVjb21tb25zLm9yZy9ucyMiIHhtbG5zOnJkZj0iaHR0cDovL3d3dy53My5vcmcvMTk5OS8wMi8yMi1yZGYtc3ludGF4LW5zIyIgeG1sbnM6c3ZnPSJodHRwOi8vd3d3LnczLm9yZy8yMDAwL3N2ZyIgeG1sbnM9Imh0dHA6Ly93d3cudzMub3JnLzIwMDAvc3ZnIiB4bWxuczpzb2RpcG9kaT0iaHR0cDovL3NvZGlwb2RpLnNvdXJjZWZvcmdlLm5ldC9EVEQvc29kaXBvZGktMC5kdGQiIHhtbG5zOmlua3NjYXBlPSJodHRwOi8vd3d3Lmlua3NjYXBlLm9yZy9uYW1lc3BhY2VzL2lua3NjYXBlIiB2aWV3Qm94PSIwIDAgMTggMTgiIGNsYXNzPSIiIHJvbGU9InByZXNlbnRhdGlvbiIgZm9jdXNhYmxlPSJmYWxzZSIgaWQ9IkZ4U3ltYm9sMC0wYzMiIHZlcnNpb249IjEuMSIgc29kaXBvZGk6ZG9jbmFtZT0iUG9saWN5LnN2ZyIgaW5rc2NhcGU6dmVyc2lvbj0iMC45Mi4zICgyNDA1NTQ2LCAyMDE4LTAzLTExKSI+JiN4YTsgIDxtZXRhZGF0YSBpZD0ibWV0YWRhdGEzMDM0Ij4mI3hhOyAgICA8cmRmOlJERj4mI3hhOyAgICAgIDxjYzpXb3JrIHJkZjphYm91dD0iIj4mI3hhOyAgICAgICAgPGRjOmZvcm1hdD5pbWFnZS9zdmcreG1sPC9kYzpmb3JtYXQ+JiN4YTsgICAgICAgIDxkYzp0eXBlIHJkZjpyZXNvdXJjZT0iaHR0cDovL3B1cmwub3JnL2RjL2RjbWl0eXBlL1N0aWxsSW1hZ2UiLz4mI3hhOyAgICAgICAgPGRjOnRpdGxlLz4mI3hhOyAgICAgIDwvY2M6V29yaz4mI3hhOyAgICA8L3JkZjpSREY+JiN4YTsgIDwvbWV0YWRhdGE+JiN4YTsgIDxkZWZzIGlkPSJkZWZzMzAzMiIvPiYjeGE7ICA8c29kaXBvZGk6bmFtZWR2aWV3IHBhZ2Vjb2xvcj0iI2ZmZmZmZiIgYm9yZGVyY29sb3I9IiM2NjY2NjYiIGJvcmRlcm9wYWNpdHk9IjEiIG9iamVjdHRvbGVyYW5jZT0iMTAiIGdyaWR0b2xlcmFuY2U9IjEwIiBndWlkZXRvbGVyYW5jZT0iMTAiIGlua3NjYXBlOnBhZ2VvcGFjaXR5PSIwIiBpbmtzY2FwZTpwYWdlc2hhZG93PSIyIiBpbmtzY2FwZTp3aW5kb3ctd2lkdGg9IjY0MCIgaW5rc2NhcGU6d2luZG93LWhlaWdodD0iNDgwIiBpZD0ibmFtZWR2aWV3MzAzMCIgc2hvd2dyaWQ9ImZhbHNlIiBpbmtzY2FwZTp6b29tPSIxNy4zODg4ODkiIGlua3NjYXBlOmN4PSI5IiBpbmtzY2FwZTpjeT0iOSIgaW5rc2NhcGU6d2luZG93LXg9IjAiIGlua3NjYXBlOndpbmRvdy15PSIwIiBpbmtzY2FwZTp3aW5kb3ctbWF4aW1pemVkPSIxIiBpbmtzY2FwZTpjdXJyZW50LWxheWVyPSJGeFN5bWJvbDAtMGMzIi8+JiN4YTsgIDxnIGlkPSJnMzAyNyI+JiN4YTsgICAgPHRpdGxlIGlkPSJ0aXRsZTMwMDciLz4mI3hhOyAgICA8Y2lyY2xlIGN4PSI4Ljk1NiIgY3k9IjkuMDA0IiByPSIyLjUiIGNsYXNzPSJtc3BvcnRhbGZ4LXN2Zy1jMTUiIGZpbGw9IiM1OWI0ZDkiIGlkPSJjaXJjbGUzMDA5Ii8+JiN4YTsgICAgPGNpcmNsZSBjeD0iMTMuMTE2IiBjeT0iNi42NjQiIHI9IjEuMjI0IiBjbGFzcz0ibXNwb3J0YWxmeC1zdmctYzE1IiBmaWxsPSIjNTliNGQ5IiBpZD0iY2lyY2xlMzAxMSIvPiYjeGE7ICAgIDxjaXJjbGUgY3g9IjEzLjExNiIgY3k9IjExLjM0NCIgcj0iMS4yMjQiIGNsYXNzPSJtc3BvcnRhbGZ4LXN2Zy1jMTUiIGZpbGw9IiM1OWI0ZDkiIGlkPSJjaXJjbGUzMDEzIi8+JiN4YTsgICAgPGNpcmNsZSBjeD0iMTUuOTU2IiBjeT0iMTMuMDExIiByPSIxLjA0NCIgY2xhc3M9Im1zcG9ydGFsZngtc3ZnLWMxNSIgZmlsbD0iIzU5YjRkOSIgaWQ9ImNpcmNsZTMwMTUiLz4mI3hhOyAgICA8Y2lyY2xlIGN4PSIxNS45NTYiIGN5PSI1LjAxMSIgcj0iMSIgY2xhc3M9Im1zcG9ydGFsZngtc3ZnLWMxNSIgZmlsbD0iIzU5YjRkOSIgaWQ9ImNpcmNsZTMwMTciLz4mI3hhOyAgICA8Y2lyY2xlIGN4PSIxNS45NTYiIGN5PSI5LjAwNCIgcj0iMSIgY2xhc3M9Im1zcG9ydGFsZngtc3ZnLWMxNSIgZmlsbD0iIzU5YjRkOSIgaWQ9ImNpcmNsZTMwMTkiLz4mI3hhOyAgICA8Y2lyY2xlIGN4PSIxMi42NDQiIGN5PSIyLjg4NCIgcj0iLjcyIiBjbGFzcz0ibXNwb3J0YWxmeC1zdmctYzE2IiBmaWxsPSIjMzk5OWM2IiBpZD0iY2lyY2xlMzAyMSIvPiYjeGE7ICAgIDxwYXRoIGQ9Ik04Ljk3NiAxNi4zNDRsLTYuNTgtMy42ODJWNS4zMzhsNi41OC0zLjY4MiAzLjI4NCAxLjgzOC43MjYtMS4yNDRMOC45NzYgMCAuOTU2IDQuNXY5bDguMDIgNC41IDQuMDEtMi4yNS0uNzI2LTEuMjQ0eiIgY2xhc3M9Im1zcG9ydGFsZngtc3ZnLWMxNiIgZmlsbD0iIzM5OTljNiIgaWQ9InBhdGgzMDIzIi8+JiN4YTsgICAgPGNpcmNsZSBjeD0iMTIuNjQ0IiBjeT0iMTUuMTE2IiByPSIuNzIiIGNsYXNzPSJtc3BvcnRhbGZ4LXN2Zy1jMTYiIGZpbGw9IiMzOTk5YzYiIGlkPSJjaXJjbGUzMDI1Ii8+JiN4YTsgIDwvZz4mI3hhOzwvc3ZnPg==;labelBackgroundColor=#ffffff;fillColor=#E6E6E6;" parent="1" vertex="1">
                    <mxGeometry x="705.98" y="91" width="43" height="43" as="geometry"/>
                </mxCell>
                <mxCell id="DpS6iWFYVrVHI2XnOxSI-21" style="edgeStyle=orthogonalEdgeStyle;rounded=0;orthogonalLoop=1;jettySize=auto;html=1;exitX=0.5;exitY=0.005;exitDx=0;exitDy=0;exitPerimeter=0;entryX=0.237;entryY=0.5;entryDx=0;entryDy=0;entryPerimeter=0;" parent="1" source="rbMpHbroR3ne59Me33Iv-4" target="8ws5QArpv4ClrEHblM27-17" edge="1">
                    <mxGeometry relative="1" as="geometry">
                        <Array as="points">
                            <mxPoint x="134" y="259"/>
                        </Array>
                        <mxPoint x="173" y="259" as="targetPoint"/>
                    </mxGeometry>
                </mxCell>
                <mxCell id="rbMpHbroR3ne59Me33Iv-4" value="Multi-factor&lt;br&gt;Authentication" style="verticalLabelPosition=bottom;html=1;verticalAlign=top;align=center;strokeColor=none;fillColor=#00BEF2;shape=mxgraph.azure.multi_factor_authentication;pointerEvents=1;aspect=fixed;labelBackgroundColor=#ffffff;spacingTop=2;" parent="1" vertex="1">
                    <mxGeometry x="116" y="346.59000000000003" width="31" height="62" as="geometry"/>
                </mxCell>
                <mxCell id="Xh68L-qjLAB-Ckb6e6WH-10" style="edgeStyle=elbowEdgeStyle;rounded=0;orthogonalLoop=1;jettySize=auto;elbow=vertical;html=1;entryX=0.5;entryY=1;entryDx=0;entryDy=0;entryPerimeter=0;exitX=0.87;exitY=0.5;exitDx=0;exitDy=0;exitPerimeter=0;" parent="1" source="Xh68L-qjLAB-Ckb6e6WH-6" target="rbMpHbroR3ne59Me33Iv-30" edge="1">
                    <mxGeometry relative="1" as="geometry">
                        <Array as="points">
                            <mxPoint x="812.84" y="632"/>
                            <mxPoint x="810.84" y="633"/>
                            <mxPoint x="796.84" y="628"/>
                            <mxPoint x="786.84" y="628"/>
                        </Array>
                    </mxGeometry>
                </mxCell>
                <mxCell id="Xh68L-qjLAB-Ckb6e6WH-6" value="Multi-factor&lt;br&gt;Authentication" style="verticalLabelPosition=bottom;html=1;verticalAlign=top;align=center;strokeColor=none;fillColor=#00BEF2;shape=mxgraph.azure.multi_factor_authentication;pointerEvents=1;aspect=fixed;labelBackgroundColor=#ffffff;" parent="1" vertex="1">
                    <mxGeometry x="726.84" y="596.59" width="35" height="70" as="geometry"/>
                </mxCell>
                <mxCell id="8ws5QArpv4ClrEHblM27-17" value="Developer" style="verticalLabelPosition=bottom;html=1;verticalAlign=top;align=center;strokeColor=none;fillColor=#00BEF2;shape=mxgraph.azure.user;labelBackgroundColor=#ffffff;spacingTop=4;" parent="1" vertex="1">
                    <mxGeometry x="174.75" y="234" width="47.5" height="50" as="geometry"/>
                </mxCell>
                <mxCell id="DpS6iWFYVrVHI2XnOxSI-25" style="edgeStyle=orthogonalEdgeStyle;rounded=0;orthogonalLoop=1;jettySize=auto;html=1;" parent="1" source="DpS6iWFYVrVHI2XnOxSI-24" target="rbMpHbroR3ne59Me33Iv-30" edge="1">
                    <mxGeometry relative="1" as="geometry"/>
                </mxCell>
                <mxCell id="Xh68L-qjLAB-Ckb6e6WH-9" style="edgeStyle=elbowEdgeStyle;rounded=0;orthogonalLoop=1;jettySize=auto;html=1;elbow=vertical;entryX=0.12;entryY=0.5;entryDx=0;entryDy=0;entryPerimeter=0;" parent="1" source="DpS6iWFYVrVHI2XnOxSI-24" target="Xh68L-qjLAB-Ckb6e6WH-6" edge="1">
                    <mxGeometry relative="1" as="geometry">
                        <mxPoint x="716.84" y="632" as="targetPoint"/>
                        <Array as="points">
                            <mxPoint x="696.84" y="632"/>
                            <mxPoint x="746.84" y="632"/>
                            <mxPoint x="706.84" y="628"/>
                            <mxPoint x="696.84" y="623"/>
                        </Array>
                    </mxGeometry>
                </mxCell>
                <mxCell id="DpS6iWFYVrVHI2XnOxSI-24" value="Azure AD&lt;br&gt;(B2C)" style="aspect=fixed;html=1;points=[];align=center;image;fontSize=12;image=img/lib/mscae/Azure_AD_B2C.svg;labelBackgroundColor=#ffffff;" parent="1" vertex="1">
                    <mxGeometry x="641.25" y="542" width="50" height="46" as="geometry"/>
                </mxCell>
                <mxCell id="rbMpHbroR3ne59Me33Iv-30" value="End User" style="verticalLabelPosition=bottom;html=1;verticalAlign=top;align=center;strokeColor=none;fillColor=#00BEF2;shape=mxgraph.azure.user;labelBackgroundColor=#ffffff;spacingTop=4;" parent="1" vertex="1">
                    <mxGeometry x="817.25" y="540" width="47.5" height="50" as="geometry"/>
                </mxCell>
                <mxCell id="DpS6iWFYVrVHI2XnOxSI-26" style="edgeStyle=orthogonalEdgeStyle;rounded=0;orthogonalLoop=1;jettySize=auto;html=1;" parent="1" target="rbMpHbroR3ne59Me33Iv-15" edge="1">
                    <mxGeometry relative="1" as="geometry">
                        <mxPoint x="843.4099999999999" y="352.5899999999999" as="sourcePoint"/>
                    </mxGeometry>
                </mxCell>
                <mxCell id="Xh68L-qjLAB-Ckb6e6WH-11" value="" style="rounded=0;whiteSpace=wrap;html=1;labelBackgroundColor=#ffffff;fillColor=#f5f5f5;strokeColor=#666666;fontColor=#333333;dashed=1;" parent="1" vertex="1">
                    <mxGeometry x="723" y="210" width="330" height="250" as="geometry"/>
                </mxCell>
                <mxCell id="DpS6iWFYVrVHI2XnOxSI-19" style="edgeStyle=orthogonalEdgeStyle;rounded=0;orthogonalLoop=1;jettySize=auto;html=1;entryX=0;entryY=0.5;entryDx=0;entryDy=0;startArrow=classic;startFill=1;" parent="1" source="rbMpHbroR3ne59Me33Iv-15" target="rbMpHbroR3ne59Me33Iv-18" edge="1">
                    <mxGeometry relative="1" as="geometry">
                        <Array as="points">
                            <mxPoint x="953" y="258"/>
                            <mxPoint x="953" y="258"/>
                        </Array>
                    </mxGeometry>
                </mxCell>
                <mxCell id="DpS6iWFYVrVHI2XnOxSI-11" style="edgeStyle=orthogonalEdgeStyle;rounded=0;orthogonalLoop=1;jettySize=auto;html=1;" parent="1" source="swq4_WMoCDQynXBAzhwi-55" target="rbMpHbroR3ne59Me33Iv-15" edge="1">
                    <mxGeometry relative="1" as="geometry">
                        <Array as="points">
                            <mxPoint x="756" y="259"/>
                            <mxPoint x="756" y="259"/>
                        </Array>
                    </mxGeometry>
                </mxCell>
                <mxCell id="rbMpHbroR3ne59Me33Iv-18" value="Azure&#10;Cosmos DB" style="shape=image;verticalLabelPosition=bottom;verticalAlign=top;imageAspect=0;aspect=fixed;image=data:image/svg+xml,PHN2ZyB4bWxuczpkYz0iaHR0cDovL3B1cmwub3JnL2RjL2VsZW1lbnRzLzEuMS8iIHhtbG5zOmNjPSJodHRwOi8vY3JlYXRpdmVjb21tb25zLm9yZy9ucyMiIHhtbG5zOnJkZj0iaHR0cDovL3d3dy53My5vcmcvMTk5OS8wMi8yMi1yZGYtc3ludGF4LW5zIyIgeG1sbnM6c3ZnPSJodHRwOi8vd3d3LnczLm9yZy8yMDAwL3N2ZyIgeG1sbnM9Imh0dHA6Ly93d3cudzMub3JnLzIwMDAvc3ZnIiB4bWxuczpzb2RpcG9kaT0iaHR0cDovL3NvZGlwb2RpLnNvdXJjZWZvcmdlLm5ldC9EVEQvc29kaXBvZGktMC5kdGQiIHhtbG5zOmlua3NjYXBlPSJodHRwOi8vd3d3Lmlua3NjYXBlLm9yZy9uYW1lc3BhY2VzL2lua3NjYXBlIiB2aWV3Qm94PSIwIDAgMjMuOTgxIDIyIiBjbGFzcz0iZnhzLXBvcnRhbC1zdmciIHJvbGU9InByZXNlbnRhdGlvbiIgZm9jdXNhYmxlPSJmYWxzZSIgaWQ9IkZ4U3ltYm9sMC0wZmIiIHZlcnNpb249IjEuMSIgc29kaXBvZGk6ZG9jbmFtZT0iQXp1cmUgQ29zbW9zIERCLnN2ZyIgaW5rc2NhcGU6dmVyc2lvbj0iMC45Mi4zICgyNDA1NTQ2LCAyMDE4LTAzLTExKSI+JiN4YTsgIDxtZXRhZGF0YSBpZD0ibWV0YWRhdGE0MzM2Ij4mI3hhOyAgICA8cmRmOlJERj4mI3hhOyAgICAgIDxjYzpXb3JrIHJkZjphYm91dD0iIj4mI3hhOyAgICAgICAgPGRjOmZvcm1hdD5pbWFnZS9zdmcreG1sPC9kYzpmb3JtYXQ+JiN4YTsgICAgICAgIDxkYzp0eXBlIHJkZjpyZXNvdXJjZT0iaHR0cDovL3B1cmwub3JnL2RjL2RjbWl0eXBlL1N0aWxsSW1hZ2UiLz4mI3hhOyAgICAgICAgPGRjOnRpdGxlLz4mI3hhOyAgICAgIDwvY2M6V29yaz4mI3hhOyAgICA8L3JkZjpSREY+JiN4YTsgIDwvbWV0YWRhdGE+JiN4YTsgIDxkZWZzIGlkPSJkZWZzNDMzNCIvPiYjeGE7ICA8c29kaXBvZGk6bmFtZWR2aWV3IHBhZ2Vjb2xvcj0iI2ZmZmZmZiIgYm9yZGVyY29sb3I9IiM2NjY2NjYiIGJvcmRlcm9wYWNpdHk9IjEiIG9iamVjdHRvbGVyYW5jZT0iMTAiIGdyaWR0b2xlcmFuY2U9IjEwIiBndWlkZXRvbGVyYW5jZT0iMTAiIGlua3NjYXBlOnBhZ2VvcGFjaXR5PSIwIiBpbmtzY2FwZTpwYWdlc2hhZG93PSIyIiBpbmtzY2FwZTp3aW5kb3ctd2lkdGg9IjY0MCIgaW5rc2NhcGU6d2luZG93LWhlaWdodD0iNDgwIiBpZD0ibmFtZWR2aWV3NDMzMiIgc2hvd2dyaWQ9ImZhbHNlIiBpbmtzY2FwZTp6b29tPSIxNC4yMjcyNzMiIGlua3NjYXBlOmN4PSIxMS45OTA1IiBpbmtzY2FwZTpjeT0iMTEiIGlua3NjYXBlOndpbmRvdy14PSIwIiBpbmtzY2FwZTp3aW5kb3cteT0iMCIgaW5rc2NhcGU6d2luZG93LW1heGltaXplZD0iMSIgaW5rc2NhcGU6Y3VycmVudC1sYXllcj0iRnhTeW1ib2wwLTBmYiIvPiYjeGE7ICA8ZyBpZD0iZzQzMjkiPiYjeGE7ICAgIDx0aXRsZSBpZD0idGl0bGU0MzE1Ii8+JiN4YTsgICAgPHRpdGxlIGlkPSJ0aXRsZTQzMTciPkNvc21vc19EQl8yPC90aXRsZT4mI3hhOyAgICA8cGF0aCBkPSJNMTkuOCA5LjhBNy45OCA3Ljk4IDAgMSAxIDEwLjMgNGE3Ljk1IDcuOTUgMCAwIDEgOS41IDUuOHoiIGNsYXNzPSJtc3BvcnRhbGZ4LXN2Zy1jMTUiIGZpbGw9IiM1OWI0ZDkiIGlkPSJwYXRoNDMxOSIvPiYjeGE7ICAgIDxwYXRoIGQ9Ik0xMSAxNC45YTIuMTEyIDIuMTEyIDAgMCAwLTIuMS0yLjFoLS40QTIuMDE1IDIuMDE1IDAgMCAwIDcgMTAuM0g0LjRhNy44IDcuOCAwIDAgMCAxLjkgNi44aDIuNmEyLjIgMi4yIDAgMCAwIDIuMS0yLjJ6bTIuNi04Ljd2LjRoLS45YTIuMiAyLjIgMCAwIDAgMCA0LjRIMjBhNy42MjQgNy42MjQgMCAwIDAtNC4xLTYuMkgxNWExLjM2NyAxLjM2NyAwIDAgMC0xLjQgMS40em02LjQgNi4zaC00LjNhMS43OTMgMS43OTMgMCAwIDAtMS44IDEuOCAyLjkyIDIuOTIgMCAwIDAgLjIuOSAxLjgxMiAxLjgxMiAwIDAgMC0xLjIgMi4yIDEuNjMxIDEuNjMxIDAgMCAwIDEuNyAxLjJoMS4yYTcuOTQ3IDcuOTQ3IDAgMCAwIDQuMi02LjF6IiBvcGFjaXR5PSIuNSIgY2xhc3M9Im1zcG9ydGFsZngtc3ZnLWMwMSIgZmlsbD0iI2ZmZmZmZiIgaWQ9InBhdGg0MzIxIi8+JiN4YTsgICAgPHBhdGggZD0iTTMuMiA2LjRhLjIxNS4yMTUgMCAwIDEtLjItLjJBMi44IDIuOCAwIDAgMCAuMiAzLjRjLS4xLjEtLjItLjEtLjItLjJBLjIxNS4yMTUgMCAwIDEgLjIgMyAyLjggMi44IDAgMCAwIDMgLjJjMC0uMi4xLS4yLjItLjJzLjMgMCAuMy4yQTIuOCAyLjggMCAwIDAgNi4zIDNhLjIuMiAwIDAgMSAwIC40IDIuOCAyLjggMCAwIDAtMi44IDIuOGMwIC4xLS4xLjItLjMuMnoiIGNsYXNzPSJtc3BvcnRhbGZ4LXN2Zy1jMTMiIGZpbGw9IiNiOGQ0MzIiIGlkPSJwYXRoNDMyMyIvPiYjeGE7ICAgIDxwYXRoIGQ9Ik0yMC4zIDIyYy0uMSAwLS4xIDAtLjEtLjFhMS42NjYgMS42NjYgMCAwIDAtMS43LTEuNmMtLjEgMC0uMSAwLS4xLS4xczAtLjEuMS0uMWExLjczNSAxLjczNSAwIDAgMCAxLjctMS42YzAtLjEgMC0uMS4xLS4xcy4xIDAgLjEuMWExLjY2NiAxLjY2NiAwIDAgMCAxLjcgMS42Yy4xIDAgLjEgMCAuMS4xczAgLjEtLjEuMWExLjczNSAxLjczNSAwIDAgMC0xLjcgMS42Yy4xLjEgMCAuMS0uMS4xeiIgY2xhc3M9Im1zcG9ydGFsZngtc3ZnLWMxNSIgZmlsbD0iIzU5YjRkOSIgaWQ9InBhdGg0MzI1Ii8+JiN4YTsgICAgPHBhdGggZD0iTTIzLjcgNC42Yy0uOC0xLjItMi42LTEuNS01LjUtLjhhMTkuNzUyIDE5Ljc1MiAwIDAgMC0yLjYuOCA3LjgzNyA3LjgzNyAwIDAgMSAxLjUgMWMuNS0uMSAxLS4zIDEuNC0uNGE5LjA3OSA5LjA3OSAwIDAgMSAyLjMtLjNjLjkgMCAxLjQuMiAxLjYuNS4zLjUgMCAxLjctMS42IDMuNmE5LjQyOCA5LjQyOCAwIDAgMS0xIDEgMzQuMDc4IDM0LjA3OCAwIDAgMS02IDQuNkEyNy45IDI3LjkgMCAwIDEgNyAxNy43Yy0yLjkuOS00LjkuOS01LjMuMnMuNC0yLjUgMi42LTQuNmExMS4wMTkgMTEuMDE5IDAgMCAxLS4yLTEuOEMuNyAxNC42LS40IDE3LjMuNCAxOC43YTMuNTEgMy41MSAwIDAgMCAzIDEuMiAxNS4wNDcgMTUuMDQ3IDAgMCAwIDUuMS0xLjEgMzMuNjI1IDMzLjYyNSAwIDAgMCA2LTMgNDEuODY5IDQxLjg2OSAwIDAgMCA1LjQtNCAxNy4wNDQgMTcuMDQ0IDAgMCAwIDEuOS0xLjljMi0yLjMgMi42LTQuMSAxLjktNS4zeiIgaWQ9InBhdGg0MzI3Ii8+JiN4YTsgIDwvZz4mI3hhOzwvc3ZnPg==;labelBackgroundColor=#F2F2F2;spacingTop=2;" parent="1" vertex="1">
                    <mxGeometry x="973.47" y="233.10000000000002" width="54.53" height="50" as="geometry"/>
                </mxCell>
                <mxCell id="swq4_WMoCDQynXBAzhwi-60" style="edgeStyle=elbowEdgeStyle;rounded=0;orthogonalLoop=1;jettySize=auto;html=1;endArrow=classic;endFill=1;entryX=1.002;entryY=0.768;entryDx=0;entryDy=0;entryPerimeter=0;" parent="1" source="swq4_WMoCDQynXBAzhwi-73" target="rbMpHbroR3ne59Me33Iv-15" edge="1">
                    <mxGeometry relative="1" as="geometry">
                        <Array as="points">
                            <mxPoint x="925" y="280"/>
                        </Array>
                    </mxGeometry>
                </mxCell>
                <mxCell id="DpS6iWFYVrVHI2XnOxSI-30" value="Azure Monitor" style="aspect=fixed;html=1;points=[];align=center;image;fontSize=12;image=img/lib/mscae/Monitor.svg;labelBackgroundColor=#F2F2F2;spacingTop=4;" parent="1" vertex="1">
                    <mxGeometry x="975" y="359" width="50" height="50" as="geometry"/>
                </mxCell>
                <mxCell id="swq4_WMoCDQynXBAzhwi-1" style="edgeStyle=orthogonalEdgeStyle;rounded=0;orthogonalLoop=1;jettySize=auto;html=1;" parent="1" source="swq4_WMoCDQynXBAzhwi-57" target="rbMpHbroR3ne59Me33Iv-15" edge="1">
                    <mxGeometry relative="1" as="geometry">
                        <Array as="points">
                            <mxPoint x="843" y="170"/>
                            <mxPoint x="843" y="170"/>
                        </Array>
                    </mxGeometry>
                </mxCell>
                <mxCell id="Xh68L-qjLAB-Ckb6e6WH-12" value="Terraform" style="shape=image;verticalLabelPosition=bottom;verticalAlign=top;imageAspect=0;image=data:image/svg+xml,PHN2ZyB4bWxuczpjYz0iaHR0cDovL2NyZWF0aXZlY29tbW9ucy5vcmcvbnMjIiB4bWxuczpkYz0iaHR0cDovL3B1cmwub3JnL2RjL2VsZW1lbnRzLzEuMS8iIHhtbG5zOmlua3NjYXBlPSJodHRwOi8vd3d3Lmlua3NjYXBlLm9yZy9uYW1lc3BhY2VzL2lua3NjYXBlIiB4bWxuczpyZGY9Imh0dHA6Ly93d3cudzMub3JnLzE5OTkvMDIvMjItcmRmLXN5bnRheC1ucyMiIHhtbG5zOnNvZGlwb2RpPSJodHRwOi8vc29kaXBvZGkuc291cmNlZm9yZ2UubmV0L0RURC9zb2RpcG9kaS0wLmR0ZCIgeG1sbnM6c3ZnPSJodHRwOi8vd3d3LnczLm9yZy8yMDAwL3N2ZyIgeG1sbnM9Imh0dHA6Ly93d3cudzMub3JnLzIwMDAvc3ZnIiB4bWxuczp4bGluaz0iaHR0cDovL3d3dy53My5vcmcvMTk5OS94bGluayIgdmVyc2lvbj0iMS4xIiBpZD0ic3ZnNDA4ODAiIGlua3NjYXBlOnZlcnNpb249IjAuOTIuMyAoMjQwNTU0NiwgMjAxOC0wMy0xMSkiIHNvZGlwb2RpOmRvY25hbWU9InRlcnJhZm9ybS5zdmciIHg9IjBweCIgeT0iMHB4IiB2aWV3Qm94PSIwIDAgMzkuNiA0NSIgc3R5bGU9ImVuYWJsZS1iYWNrZ3JvdW5kOm5ldyAwIDAgMzkuNiA0NTsiIHhtbDpzcGFjZT0icHJlc2VydmUiPiYjeGE7PHNvZGlwb2RpOm5hbWVkdmlldyBib3JkZXJjb2xvcj0iIzY2NjY2NiIgYm9yZGVyb3BhY2l0eT0iMSIgZml0LW1hcmdpbi1ib3R0b209IjAiIGZpdC1tYXJnaW4tbGVmdD0iMCIgZml0LW1hcmdpbi1yaWdodD0iMCIgZml0LW1hcmdpbi10b3A9IjAiIGdyaWR0b2xlcmFuY2U9IjEwIiBndWlkZXRvbGVyYW5jZT0iMTAiIGlkPSJuYW1lZHZpZXc0MDg4MiIgaW5rc2NhcGU6Y3VycmVudC1sYXllcj0ic3ZnNDA4ODAiIGlua3NjYXBlOmN4PSIyNi4zOTk5ODYiIGlua3NjYXBlOmN5PSIyOS45OTk5ODUiIGlua3NjYXBlOnBhZ2VvcGFjaXR5PSIwIiBpbmtzY2FwZTpwYWdlc2hhZG93PSIyIiBpbmtzY2FwZTp3aW5kb3ctaGVpZ2h0PSIxMDE3IiBpbmtzY2FwZTp3aW5kb3ctbWF4aW1pemVkPSIxIiBpbmtzY2FwZTp3aW5kb3ctd2lkdGg9IjE5MjAiIGlua3NjYXBlOndpbmRvdy14PSItOCIgaW5rc2NhcGU6d2luZG93LXk9Ii04IiBpbmtzY2FwZTp6b29tPSIxMy45ODM4NzgiIG9iamVjdHRvbGVyYW5jZT0iMTAiIHBhZ2Vjb2xvcj0iI2ZmZmZmZiIgc2hvd2dyaWQ9ImZhbHNlIj4mI3hhOwk8L3NvZGlwb2RpOm5hbWVkdmlldz4mI3hhOzxnIGlkPSJnNDA4NzgiIHRyYW5zZm9ybT0idHJhbnNsYXRlKC0wLjc1LC0wLjc0NzUpIj4mI3hhOwk8dGl0bGUgaWQ9InRpdGxlNDA4NDQiPlBhZ2UtMTwvdGl0bGU+JiN4YTsJPGcgaWQ9Imdyb3VwMTU3MC0xIiB0cmFuc2Zvcm09InRyYW5zbGF0ZSgwLjc1LC0wLjc1KSI+JiN4YTsJCTx0aXRsZSBpZD0idGl0bGU0MDg0NiI+VGVycmFmb3JtPC90aXRsZT4mI3hhOwkJPGcgaWQ9Imdyb3VwMTU3MS0yIj4mI3hhOwkJCTx0aXRsZSBpZD0idGl0bGU0MDg0OCI+TG9nbzwvdGl0bGU+JiN4YTsJCQk8ZyBpZD0ic2hhcGUxNTcyLTMiIHRyYW5zZm9ybT0idHJhbnNsYXRlKDEzLjY1LC0xNS43NjUpIj4mI3hhOwkJCQk8dGl0bGUgaWQ9InRpdGxlNDA4NTAiPnBvbHlnb24zNzA2PC90aXRsZT4mI3hhOwkJCQk8cGF0aCBpZD0icGF0aDQwODUyIiBpbmtzY2FwZTpjb25uZWN0b3ItY3VydmF0dXJlPSIwIiBzdHlsZT0iZmlsbDojNUM0RUU1OyIgZD0iTTEyLjMsNDYuNUwwLDM5LjRWMjUuMTlsMTIuMyw3LjExVjQ2LjV6Ii8+JiN4YTsJCQk8L2c+JiN4YTsJCQk8ZyBpZD0ic2hhcGUxNTczLTUiIHRyYW5zZm9ybT0idHJhbnNsYXRlKDI3LjMsLTE1Ljc2NSkiPiYjeGE7CQkJCTx0aXRsZSBpZD0idGl0bGU0MDg1NSI+cG9seWdvbjM3MDg8L3RpdGxlPiYjeGE7CQkJCTxwYXRoIGlkPSJwYXRoNDA4NTciIGlua3NjYXBlOmNvbm5lY3Rvci1jdXJ2YXR1cmU9IjAiIHN0eWxlPSJmaWxsOiM0MDQwQjI7IiBkPSJNMTIuMywzOS40MVYyNS4xOUwwLDMyLjN2MTQuMkwxMi4zLDM5LjQxeiIvPiYjeGE7CQkJPC9nPiYjeGE7CQkJPGcgaWQ9InNoYXBlMTU3NC03IiB0cmFuc2Zvcm09InRyYW5zbGF0ZSgwLC0yMy42OTI1KSI+JiN4YTsJCQkJPHRpdGxlIGlkPSJ0aXRsZTQwODYwIj5wb2x5Z29uMzcxMDwvdGl0bGU+JiN4YTsJCQkJPHBhdGggaWQ9InBhdGg0MDg2MiIgaW5rc2NhcGU6Y29ubmVjdG9yLWN1cnZhdHVyZT0iMCIgc3R5bGU9ImZpbGw6IzVDNEVFNTsiIGQ9Ik0xMi4zLDQ2LjVWMzIuM0wwLDI1LjE5VjM5LjRMMTIuMyw0Ni41eiIvPiYjeGE7CQkJPC9nPiYjeGE7CQkJPGcgaWQ9InNoYXBlMTU3NS05IiB0cmFuc2Zvcm09InRyYW5zbGF0ZSgxMy42NSkiPiYjeGE7CQkJCTx0aXRsZSBpZD0idGl0bGU0MDg2NSI+cG9seWdvbjM3MTI8L3RpdGxlPiYjeGE7CQkJCTxwYXRoIGlkPSJwYXRoNDA4NjciIGlua3NjYXBlOmNvbm5lY3Rvci1jdXJ2YXR1cmU9IjAiIHN0eWxlPSJmaWxsOiM1QzRFRTU7IiBkPSJNMTIuMywzMi4zOVYzMi4zTDAsMjUuMTlWMzkuNGwxMi4zLDcuMVYzMi4zOXogICAgICAiLz4mI3hhOwkJCTwvZz4mI3hhOwkJCTxnIGlkPSJzaGFwZTE1NzYtMTEiIHRyYW5zZm9ybT0idHJhbnNsYXRlKDM0LjQwMjUsLTkuMzIyNSkiPiYjeGE7CQkJCTx0aXRsZSBpZD0idGl0bGU0MDg3MCI+cGF0aDM3MTQ8L3RpdGxlPiYjeGE7CQkJPC9nPiYjeGE7CQkJPGcgaWQ9InNoYXBlMTU3Ny0xMiIgdHJhbnNmb3JtPSJ0cmFuc2xhdGUoMTMuNjUsLTIxLjMwNzUpIj4mI3hhOwkJCQk8dGl0bGUgaWQ9InRpdGxlNDA4NzMiPnBhdGgzNzE2PC90aXRsZT4mI3hhOwkJCTwvZz4mI3hhOwkJPC9nPiYjeGE7CTwvZz4mI3hhOzwvZz4mI3hhOzwvc3ZnPg==;dashed=1;labelBackgroundColor=#F2F2F2;labelBorderColor=none;" parent="1" vertex="1">
                    <mxGeometry x="743" y="382" width="40" height="45" as="geometry"/>
                </mxCell>
                <mxCell id="Xh68L-qjLAB-Ckb6e6WH-13" style="edgeStyle=elbowEdgeStyle;rounded=0;orthogonalLoop=1;jettySize=auto;elbow=vertical;html=1;startArrow=none;startFill=0;" parent="1" source="swq4_WMoCDQynXBAzhwi-47" target="Xh68L-qjLAB-Ckb6e6WH-12" edge="1">
                    <mxGeometry relative="1" as="geometry">
                        <mxPoint x="493" y="300" as="sourcePoint"/>
                        <mxPoint x="676" y="413" as="targetPoint"/>
                        <Array as="points">
                            <mxPoint x="623" y="410"/>
                            <mxPoint x="586" y="350"/>
                            <mxPoint x="616" y="401"/>
                            <mxPoint x="536" y="350"/>
                            <mxPoint x="486" y="320"/>
                            <mxPoint x="486" y="330"/>
                            <mxPoint x="596" y="370"/>
                            <mxPoint x="546" y="320"/>
                            <mxPoint x="526" y="360"/>
                            <mxPoint x="509" y="340"/>
                            <mxPoint x="636" y="410"/>
                        </Array>
                    </mxGeometry>
                </mxCell>
                <mxCell id="swq4_WMoCDQynXBAzhwi-3" style="edgeStyle=orthogonalEdgeStyle;rounded=0;orthogonalLoop=1;jettySize=auto;html=1;" parent="1" source="swq4_WMoCDQynXBAzhwi-2" target="rbMpHbroR3ne59Me33Iv-15" edge="1">
                    <mxGeometry relative="1" as="geometry"/>
                </mxCell>
                <mxCell id="rbMpHbroR3ne59Me33Iv-15" value="Azure&lt;br&gt;Kubernetes Service" style="aspect=fixed;html=1;points=[];align=center;image;fontSize=12;image=img/lib/mscae/Kubernetes_Services.svg;labelBackgroundColor=#F2F2F2;spacingTop=4;" parent="1" vertex="1">
                    <mxGeometry x="812.7549999999999" y="236.1" width="60.81" height="45" as="geometry"/>
                </mxCell>
                <mxCell id="swq4_WMoCDQynXBAzhwi-4" style="edgeStyle=orthogonalEdgeStyle;rounded=0;orthogonalLoop=1;jettySize=auto;html=1;exitX=0.5;exitY=1;exitDx=0;exitDy=0;" parent="1" source="swq4_WMoCDQynXBAzhwi-64" edge="1">
                    <mxGeometry relative="1" as="geometry">
                        <mxPoint x="773.3400000000001" y="185.59000000000003" as="sourcePoint"/>
                        <mxPoint x="812.7550000000001" y="247" as="targetPoint"/>
                        <Array as="points">
                            <mxPoint x="773" y="247"/>
                        </Array>
                    </mxGeometry>
                </mxCell>
                <mxCell id="swq4_WMoCDQynXBAzhwi-41" value="3" style="ellipse;whiteSpace=wrap;html=1;aspect=fixed;fillColor=#4D9900;strokeColor=none;labelBackgroundColor=none;" parent="1" vertex="1">
                    <mxGeometry x="334.25" y="330" width="23" height="23" as="geometry"/>
                </mxCell>
                <mxCell id="swq4_WMoCDQynXBAzhwi-22" value="GitHub&#10;Advanced Security" style="shape=image;aspect=fixed;image=data:image/png,iVBORw0KGgoAAAANSUhEUgAAALoAAAEQCAMAAAAwIJ7/AAAAk1BMVEX///95uP8giP9xtP9us//W6P/w9v/B3f91tv+kzv8AgP8Af/8Agv/m8f/3+//0+f+BvP+byf+w1P+Dvf+fy//b6/+JwP/h7v/H4P+52P/p8/+Txf8Vhf+62f/O5P+Nwv+Kuv8sjf9Kmf+jyP88lP9wrP+Ywv9+s/+q0f8iiv9ipv+rzP+BtP+dxP9Wn/+x1f9cov9hHwVHAAARXUlEQVR4nO2deZuqvA7AdUCsiuC+jLjMepzV8/0/3QW1aQptaUtFzvvcPPeP+x5H+BnSNAlt2mr9X/4TEix32+N4Mx21CWm3R/txb72aP96bqkyC3XFPPM8jmbQvkv3f7J8WvdXw3nwSiXe9dgbdlkj2A9rjVXBvzrzEq1TbUmrE73nTbZOMp7PR4gbtL1bRvZHPEkza+txU92R2f7sfzky5Kf2mc1/wsW8Ffob3F/O7gQcSjZ+dIf2IeP7ZWQrh98u7gEcnAXhKTUbjU7czDOIoHYtRFAfD+Wo9mxJP9Of+LK6fvNP2CiAe2WznEpZo2B23i26feN16uVvR2C8wjE7zMp837C4KuvcWtfr5eU57qb4nmt4u6I5y9MSvUfETP3fvxc7k6/O8X/LHtyLNSbT3ePCNsZ8Ijjw8adcS2gw5YyH+2MpUIx6e+EbPzU52nLH4e+sJPZ5x8P7aJaVItpickEq6Wk6x5XkzV4xi4QaoP6saAJ6w4r2bDtYjUlNFlV9kOULsZFP9gjLB5N7GzRR+9OtgnyBy/+Tqqjs0Q5Eb2cyakRPPYbA9bDP224zVFSJvO81x4gVin7i88kXmiHzkOlLdIHbnAU2ADHJa7hOHu/WxN95sxrPeZFUaULZaY6YYz3XuNCWMXP2XUWeyJ/6likSu9aNFb1cSpCB24vaZjommzjtjURkp5fcXXSUSsxmycEnOhihpK8iDo6Iek2p/rAox9/BNl0M1QJYof/BBr6w8kObRckOO2MTquzP3vcZFo1LwK7zUryIFtV2Rd+Gacs+10q0kEf8ou8YcYgIi/RszidkVZXNdtMln2Sp46YS2BR35bgo0MPbJSPIXy2KNInOJfiYih+NvrW9lJOwxehJVdHMqTz3hfrLqDOMojh/nu/WY+Dl8WWgeMy+zcoAOk5EnCRaPPs/dnnTyDnTZXeTy6IXYx+6YF65ODheTzaIznKURfyNJQIY9biDL4iBmMtVz1VGJuWBy4o8VIWU8wWZDRkK9s1jJq5o9wjxKesLPucRpWjKVBGP8O8XzPXgZUjWZgSlOHBRtMbnG/L1Dipekc+yO1dTeoWie0PQ6bIQSojV7x6h0Jv6tMLgqRu4sBBCpAAfxC93SW4+x+8I0keVM9typW/CVGmA/zCSXX5eE5uxJV0mAj0q7Y4ZuVoUo+x6dSSrVB4BcZJUs0jNNDphb8kSzAHg1RYRdJjBifNE1UOZk6gtQGi36GOZv+4FK4YTPlZUIfPPSBpRePFEkRu3UPtWL4Pqi8bJX3r1EhiyQFjwx+FT4tHWEhS+CDyGgLKsQiOWo/OEwUG0tpkcvIIoBwFwtzCUTpbWvVZaqIzTyEtlLUBLblAqbNAVO5hEeqV0wAN/3BB9u4YHbFnxGKs2C1uxqA9S9CmeGkcqYtISpXfDjwcfYRe2z69dFudYQ7mtf86W2Lro+DQYsjZ0Oc9E43Fb2vEizgqcagfO0MfYYFCv4kPqXKoHpUuV7qbH7Nm9ll6pnBoO0yltmsBjBY6WOWRjklAmMUkGiRU3dbjoq4AmMvau4e6kcFb+beodqBTZQjiAuXarcW5nQ2Ev0OE8KfenLUGGStFpo5QdonuULxjj4zUqlQQjvRLEAdTEWFbwIBpHgQ/qzSLW1INSNiFzMlH5mPltTlQhHIv1ZVl6XCdWAaD6l9moR9wY6vrFiPRZmBwFeTzHUSoQGX8KauiN0Fd6EfmYegA1V/g8MxhxXiCdA79LPVBWNaDXZdgtygph0VfhsBejF7xnIihoMmRQ/nEFoKvrq5fd0svcO6A0tFUpX/ATXDauJzj1En6XIHZRQ/GOSxmUzUv5nTZQ0xxmV/1UzZfTvorf/WYNJ0Xv/GfTzgv9GiwydjOedZgt7s5rXeu2L+E2FrVgo2Lr0/X1DJJCjN51dhV7DcuwqokR3uOj1BiJCR/Fgk9kF6N4SLa2VL3K6uwjQ/TjCy4Ibyy5CD1oxWgfvWdfNbyxidLzUsLHsEvR/gV2G3oqmiP3GW1bsRIrefHY5Ol6OcuPtNnaiQm84uxIdrdBpILsanWO/4TYnKylBx+tVbrlFy0bK0BvMXoreXPZy9NYGrYvb34dSKBro3HabBrHroHPsTvfbVBIt9Gay66HjBd6ytfK1iyY6Xn/bFHZddI5dY9dgDaKN3jx2fXS8LcD9PlMLMUDHG2CawG6CjnsHNIDdCL11Quzte7ObobfWmP3O7dIM0bk9CndmN0XHm3hIxfU7FcUYHXcouS+7OTre3nhXdgt0nv1+zQFt0FurRrBbofPs9+oMaIfO9UGqtJq3gliiY/Z71Qls0TF75a2sdmKNjrZp+iXRTBQ8LpfDwHXMY4+O2OV/M//6fv5IkjCVJEle31527n5ABXTKLt47m7X8+HzIiB9A0t/QT35fHHWdrILemmdLCyUd9XafKfaDQNJH8OzkBX4l9Fa03fSEaz7Xz30h95W+//RSfWhXQ5fI+lUFfpbw46WB6B2lxhn8U0WzcY9+0ALPZPBWyWpcoz8+hwLbPotI8VW2eztGX+UJM3f48fr38/Pz+eOhn/c5yeCrKeiTQY47+XzpwOXi+fHtI2dOg0Mz0F848jB86xaNeXd44Eyq/9YE9HdMHibvsjl/8oThw8/7o38h8qR/UHmPLzwkwj9293OHvkLk4XNJ6hS9ob8e2M1OztAfkREM3sv/fo28zcCqgagz9FcgSRItkscnxp7Y3NIV+h9QevKgGdRGz+zX/lrc0hH6bsDItSsEEXtSfYupyRE6MheDRAKxJ+bZkxv0FzCXgVFUEgB6+G18UyfoMYy3vqGfYx41NG8i7gL9nSo9+Wv61QN81TggcIEefYDqzC32Cb5rWgB0gf5FNRdqmsvqi90CTCY8GN7WBTr45w+9v38f9D/Y3tFfw2+DOECfg9L1Fl3/DLh5C6aEvuG+FgfoMEj11PZzRk0+wLTpQzMdqA7Q6bwSagRdLKhPXum/TMx+uggdWgKYoUPIqOWZWToCc39EL9A3S7Kra30d5tWoRf4wgCYTb/Sxmc1n1dEPBvaCyEM2ex3pjzdL9RA67eph2IiFjrJ+eZR+EJK3ltRinoxuDBuqR8oN8QqhMOWxHybnFExnY7OMQ4RuFAhB8MerLPrbz2fLUnKYlcxCMOjCNIXuYGZdEuiExEde8WvI2URG3mfkOQ/+TW3OqFMLtCFasC4JRknu7kqU4IB7eM47Od0i8sLz+Ln+/NBo7xl0BdxDaxyzLjVdelvkYObXMgtix+SFrILGb6FRmofaakFvIKNYQoQO8RhYBiIfFPOhteAa5bJjnYbmVv2SVlcoHLMCJrUNTH4QXCMsXkPjzpS3x/olGe2gAltHt0UlvLN1lJC3tlZa77IOKtDCxmihd4eiY6/xgiz7wJEL4eh0Gv6Y3Bn6vKVWwvykgSyFzvEHeUL0nkNS0XuxGqZ0HiJb1BPS5BWPZEp6Z+yotijRKvXroZGDgP6YK9RLyWg+BkI+EEBWAuSyyJB6pNBoMtygeWhsFQnAfXPR9neeXf7eiD4XsxLYAs3+dp3TvmXR9p9Qk7xjFzlCf82hug2fXI7CcZrJG2YfyBub0zjALDllndSCkuaHUoFou1g/QuwDxatpSG6NHAy0e82awEHLSbMmXrR+FRb1+knZBwrfsaSDwjDmhV6y2X9BIwGj4fKHFiOei5/9XtiV0ezBztQh+jpv2dlYRexdqjVRgfrMHirHPcRqB5O7sjjgvAMZmpMZTQ1QLRWmxc9hEioTgBfLWsYExQHoGZhti4UnPhA9rcOb+hmCUxfYm0o2nCt/ZH1uTAR8jOndM/kGpRsuj8m1Tabj1DOrZ3xSzZm/zepAfGw2SNkhM9ewZWw1n0Lgmw4108XJ7M2A4a+GesC18SbNrE37S/8Fg9Wp3iFhk5ah0ll6d93OOLQzdmbthTqFWn5Y8dT0ADNwMLSoDwZk+GIHnEyWFenfnr0oNn5dvc/b9gZlHkbCXvjrrys6olTK9B0YC75o9NDNWZC2dFAmrWkzP6hgbeyZ2CilKR14duMW9u84G9VJs97QF8wXIkGAzhJpcPTGjZo/WYSbJKWRRActokpMvUuLdWVGXaxh4JpvBWBrFbLVl+qndhigxTAPFuspwNRZfDS3tphWhNbmPCThj7yu8PXBrVuzWBTODBv97La1xbTiD7yGMex/C+Ou4XvIJa1mZYCrdEVZEVQ3LJodcHrP1o6+5pfZD7+eBxx4YrJ+hslGNO2DxVito/rlqwBJGCa/78fubj7vrCbvf5P8cvzwyWqhGTvThksFqMXYnYP2zS+NveCH/fP/irsI+pbLM+H4Kj4VZa3urK66figAyiQxfFHKZCa2anhFY3kgV/w20IPv/1pvgQN7yc0fC3vXfpHua7HeWJDww755HjvuLJcedCsN1LN8Pam3DiThh8jtD0+9rc50Amdm5SMtSJ2qHDixfu4Ltg9cwfuvX6L56uRnnb3L3x/C2SzFygW0Sa60uW5+eC3sEjjvInj6FtNdd4L6pexd0VR6kaX6uD59WX69PSWD8x62JNvN1k+ePl+kkyccslPGDsdBCGZN1u2rGnomQWfycviTyuFnslMl3exsDV8dg8BZZKJYxdU5kUYCeU8ZOzuzVWTP7Co34hQJ6kSuYodlMOKyxfYeag9wp1r5fWG2Fx8Ax+yu4qmoRqLFDp2oZaGtu8NoTUSHfQKeWxanwDWsj4izEY5dWE+BNy/yo7iZ2mvtucqxi0q/YOmKLI5dwdF+Yj0pYUdnf8ivwc56rre9Wow7MxcG2kYW7nIy0vor96JiZ5volS8Z2Z9ZHA9VRTh2vgA8EuekBWETbs0dV6XsW10jZgtPrU7PqyCxuBM5e9VV6jpO7AI1d8XgOpED+97ADODrwrO1bikidtZASmOaZCO12gl9FlLsAL9k5DqvKdmB1IavI6tLnp11VZeHAFhQBFnpOEob4dhnKJrXPO2YndNSbyyTCWYnrLO3p/uuj5lMScZ4A8Gd99nj116sgzPG2ltNYXag0B90cxar1ZkxXaTIbhRQTZi519+iN89uGJOwEXKHNlk8u76hXyTITw61SoRODTCfXeAdjYFncidrhl5ejiwIaiWoNQm7FNS2s5g0aQhqL1zz0VW48aWdl0DHJSgKU+4Ft46c2iVr3NEm9U2ruMmrdRNvLnGpS+8TRD6ynw8fkY+qyd5xA+9KDY3ZujDLsW4quNV+xZbAS8x+87kJT0XVmxmjSOzmR8oEXMBbvRDUQey3bds/xwccO2k6jvVO2rdLV7v4Po5a7GN7J77NIhwd6XFP19VVh97NnWTMxYoO4+ygjdlvMFjnWDluPRlO1K0DC7mgxvruj/rkgn/itpQa7z1M7j5aGnPXd3go5A4bCyG3cAMT/FTJ1JWX7PGXvU2v6y53Ezeh5JzLoG83XePpLnNhlTUUHT3uijcMToMFV2UgFUdUhy9atG/7xnOGjaaa4uMZr/LNretsK49XvLXFdznrI7c0FiqPU66s5k2tHvN8in1tGijWU5bl3FkakPWMJ9dg7HO/36+twNbhnrXxw46PPDhpV2k6bCgRN7WmVtPWjwyiiccXcutT+UVWJHf/hd4EHp1y4KR9qwRAKvHG5xH8TflIK2ic+PWXYlu5sOkCr3Y2Qc7GU0Nb3OlYlKjn5+EX8gE3HOfBK8/GVWTJe+fM2YzEOLtFAfzep9h3c8M1NQJSWNMdnIhXAB/f+aiuLPjLqzNV/QwZfbTb57n1xnQN8rgRwE+7F6V2egWFp+D7WlfFqWReMOQU3tvsOr12gTvTeO2eXCWdhYDRK/5b+o/jxmicyk4AXwQnvfudzaWQ+UYNT7z26d6HF0plOZPDE2+xasIpo1IJJkWHcuYmvUZ4Q6VEq4LRN17hTJbYl6cWPmnk0JRItNtknpFk3I3zhaUSdzft/frf4/6/KOV/RY0LkZpUDu8AAAAASUVORK5CYII=;labelPosition=center;verticalLabelPosition=bottom;align=center;verticalAlign=top;spacingTop=2;" parent="1" vertex="1">
                    <mxGeometry x="253" y="346.59" width="42.38" height="62" as="geometry"/>
                </mxCell>
                <mxCell id="swq4_WMoCDQynXBAzhwi-23" value="GitHub&#10;Open Source Security" style="shape=image;aspect=fixed;image=data:image/png,iVBORw0KGgoAAAANSUhEUgAAAxwAAAHACAMAAAAfup5HAAAACXBIWXMAAA7EAAAOxAGVKw4bAAAAP1BMVEX///8fIk5RVPFTV3kjJlEQF0ItMYYdIEwtL1koKlXt7vDS09qrrbx/g5lgMlrqVXJCRbaMjPCDhOmjQ2VnaLmJNL1uAAAgAElEQVR42uxda3PiuhKENdimSarYVP7/bz0YyGLAlubRI5sc6dY9H7LG1mN6Hj0jabOprbbaaqutttpqq6222mqrrbbaaqutttpqq+1NGh7+8/P/8d8f/3X0t/vDEy+A4P/6X4jeOvGX9KdHz4kfBLPH+WHMTdjz6ry+c3LZJpY9+SfMfyMtApL/zHzheRiT48g8mZCJ2Z7UNq8oaquttgqi2uIXGVWYa6uLXSenDuO3SyQyI8P8v0E2FaiApw4dpnV8/AdovwplbyH5MJ6eFf1oLmaGa36hXaO5T0smavoFU8TKJAG22WgojnnGYfpPot48DCr5BWUP8l1OvyQhIpnXILdus8zYw9/n1xp2LQCBtGb7/8JfJVGJuReAqaDxq30Z0GbmV/k/Kk0tlxCsc5qheQjrXrnqY/823xLxCxWMS/zfJBm/WiALKtu30VtMMGBREZKFkVi7lC6OaJCeB3EuQBk+TD/0SjWyYEGSoZgKpiCgMTS8CjQOo9goZ6Ub6aFlx5Kbh5eAUhFgasNH8BFhVhbQuGRQPmHVHtBP5GZmNWFZBUyOFWmxh0A3zIsdchOaZntsyjAn49D9BWqBEgXYMEo7NjlOVEcnw45FMJEc4gUs7+zAsdxvTQPACj2BtokZAHLOh/ebuvzTbwlF36TeBf/rGULkO0pR9RDhN/9W0KYJsZMfSYeA3SOsFPjlLArnC8jYRIVig1e4IOykwulD+TVT1d5A/1I4hYZDK6IYehCxKCYeQO2MwyKZObcUdlSpE7W+AAWJz4LtOyGpNmAfq0btQiVcMH6Fn1vX/h6+b9tYdLgsIfScSe4tSAEU008Uq2IAa3mxMVQ16ZW2UK2BINZwYwER+IoJBwy/oyf5TNpXmsCCDK5lM9gavgoyC+Hsi37yIXZ1BDiJCF5gdmjLRY8Ii9xix4GC0+N40q6hFyAQimUhEDfhlsGo0uFLczUkK4x5g7W4HFIoGg3A5LlgjVmCkDsgTIa7cDLvUiFiLQmZJrEzmOfnYMclFtIGhiWKLUILIu5A0wuzy/aKXcNMwSYfBm2AjEn4+bcjvN+k2gZLhgtyCDuJG422oMWlKKEblIFdUKSuMt2qyiVItcT9meNn3zUf8CsgPhuDeVLBtkYIgHZxmxfyGJJqIAChvGowUFZn6sHj52F/blPwIHmkKkFN/1Fx7oDWJw2ICrNaAjKNJjxewaTNUBLEluoUc3zsh8yx2e1/Wv/B9pwX3Ocr/j7I3YJMZhmdKVUJFaWrwzYbMMaCj6bbj1v/CYePGlSug0KzEapvVboCjnfEHM8AoSKQOhcQugY6T1rA34mX6h80uq7bdT/wOFLXSsp6UPclkevDpeNfazqtmAaHYzbdil4hbHnTOoZGt+37wws8TOZRFwYYbYUmYQCR4pEoJYqfEuLjGx1+bchmYkJCd7LYZiLzkuNnv79D4wKOMzy21z/tRrG58Tg9lgZBIgozReNKTV+kWDjQb5QEQLDZcXgHo+BinZOG+U++1vsN0OhG0LiBYxoeEZavSGWLlcPzhRvYmMiA3PpJQA02atnCCo/YqDWsqQThozk8WI0ROM7wuJFX3UvwYche0I5jotexqgsx/YgVWH9uYat2XeCQ3CKsgLOr+Xa8E1RdNwGOc7vF5gM8oJFXZ1As2D5QLtyFWurXcghU/HZG4TdnnkHaJYby03L1iYyPgedQYxIc/+CR965gmE5Yl8BmpRx7f8FG35JHqfnP4zb4RbkBkytRPPthpvypSXDcg4+uefCu+KWTpsIbHYeu4jMS65s/tdpyXAHcpEF2jFTigX/SiTVasWY1JkYw40/NgOMefOzv3pVJo/O8ekJN8AJnQNDoKugJJb3PRdjYiiJTpnpR2nuY96dmwTHyrjold4Vyw2f4RRFHnpp9ONlOYarIcMgoNfvFsWduIvjsT+2S0JgBx927mjAfbNFC3rlZLO4WayYOzWQeRTmVr9QsEKkqaZjDY8hGRmMWGrPgGLyrm/nYPpoPhAiA8fAibmCnq2b5zddACEMXpOZQCVioQWFfqJHRSEAjAY6RdzVZdyUHyLw1B0NIn3WUCaryowEdToBIyKCcXadl5uA/ylhBi1vJIeMPRmNrBcfIuxJHHwiFvOfXnrMYVLescffPq5hqeRiO2V/DM7DABVac+J1QMCN6Kmk0BODo72WJ+91k9IEigj+53TH+EAfXlZYbffeyKywl3bDAVMA+Q3F2Dc/u1EFoNGTgGJmP/U/uAwWCzbf0zi2ICHdhbMFbuf7kWCXWG0fuVN5oSMExjj4O1sJEWPkGsEX41UUKPgiisF+vZ9LoOxYf4j+9CxTgjZyRMbhTndhoKMAxNh/950dEfkt+QET+r4gUUlJdimJ+YFM5FAQiOfHgfCr/KsjN3sQTx5E7JTQaKnCMo49tJncOyYxHmGHKEWT5655s31jG6bSMhJrItGoeC3c1BTc8IWMbA46xezWq3OWX6eUPxod4uohlQDAjBXQJxhLo88cB5NUQxBkfTW9Ehhocg3vVjcJzEHQEjM8o+RNDql05lre4g0xhxbFAb5ivGuKM3uJNmcHxEH50zefHUcyjrYJFWsGHIEQv0j9y7fuB/wfWYes4b+MZHGeT8dlvXciwgWMcfpz9qya5NUo2VOneIVtxDeYcJJefII2CrfdwSxUMzBPD4S1YpffaAHKe1DkDo+k7LzLM4BjCj7v92DafZwtiv45xZbYgr5/BU9hFbm3T0WOgDJa+rx0Cxg/PwHAgwwOOx/ijO/TNE0C88YZ2mmUn8ZhUFqM0uMTlTUvf/4uN/qhXkh49w+IZF8l62200OMa1u5e+7K4I4V4Gl5hoinYSAlV+qu2iOUWewBHsQvjRQ/cA44yL7cMZniluqm9Pp3YrBUfrwcfIgOy7/VZnQ8yzK7XE5A1DUs/IX8wLKvyS1iZ7FKy3oMBNIWDWXgzm4vB4tu0FGAnZP5z+nFsrra1qW6cBGQPkUqXYv8QhGY2tu/RX6QnxVafdBGpEJNBPwlLvkUXbOSRevajmFRaDL5UW+13759IOMnC0XnDcXKwnhJxffjYiH0dYZqWEf2xXhk52CFZ7AK5Cdv5Gk6rird7FWly8qO4VF5JI4qQFBwMdkwi5xeoERyt3WRVnKR4hjOWhLOPMaHftMU64NW8rT0/+nBP172hbIQl1A0cvAkd7Ov+vZ7YXhFyD9c/jEQVWKyC8jd0964h9UXRevJfFGl+GW8jdXQ3EMy6URSFdf8HGSRZztC3RdKSMyFDzfgnXj8jSeeqI1kugeI7kRMatLnIa4UZ8haF0/qB3IeGMNaZDi/5VkG6XBGwt+Ysh6DgdRGzVBRonPjhuofoTRLpxvI5YYUGejrG4Ax5pIV3rwTven7j5l2eqcE1bDPxsN42KbutK7w05OhmV2/ZByJiHyHWMh+YajYiv0GNR7MxKFXAQnb6+mKw2mEchOs9GfvWgrqjYTRkLX8K7aIbc5GhNRFP9D0aCGPSFY5YMuYMVddq6d4UQzfxDxbQL5XCi3gQcPxDZTUFkl8UIJHIGolSA+INICIDbEfi7ITb1V1Bc4orDPCoWaguAI21Gzh26xCMeQ0IJICVeeQmmN12wJBZkTx5U8wpxjuQKijlTsSwqFgfHKBqZmp0fQ3KEp+xPq1Np5cPC05+RI74Wy6KQ33yP8gZedgBFM9oYtDZUrAQcGYxcna0rSBQxpqSmBF5Fyg2eaeyc8JfGwnTvVlk0c7E2hYX6leDI2ZH9xdtiSRPhTgOvhyT7JgwscNYKCW0nrJYy2Y7z0Xa3urYucIxi9leQdI0r/Wcik5BPiqC0fTC4jwp7yxkTJOBYLSjWDY67IRnnRxqRzacVVBhkRee3GULl5bbli0+rwESY8QyOlYPiLcAx9ramwVEu6DTfdauJuSn38ZVjlw3W7Vg8k/fbwTG0OzggF4pSd+GUCVdoH8ZypqqCIxYcygWHypuhcvlF6pCsdBbEzqiI2IIcHPttBQe3dT63yuq0OM4bkrhWtq9jQ8vpmx80lo5Uy1HackzlmjzgQT6jjmDtP8/sQg976G0CGD2f6EEFRzw44NSGrC1JlC2JZpmM3hovJt/ky3HcvxE63s6tQoRyZu30MKQgYkBQhuQ1XEJfLUdRtwrzxAoWkI2MLYEyzvXiQL8Fyx+A1ZhjbWyVJKltkibY5I2lv4MT8YLZYZ1JWNmqFbNV5bZgsM7515/oGHLoaBIyyhxktRzhlgOqcNFiNXJIcibH4ApuHBu6rMdJs1oFx+KWQ6K6ldgS5dbXcbkShA+DC0NIyKvKVoVaDs1thLb9f6JVNgULCtdlPTVRTt+wWo4VBeTlmlPGeGfEE4/jlKXs1ZtSahJwMbcKSeHLig4ooMichGuueSzHR5dIjlS2qoDlMHMzEOKEym2hiKWKoqqY3a+WYxm3CjEyCoWxsmfTII7vZW5Zzr0R81rCAhlpwFTBEexWwS57Hlc8oLaKlxW3bHkyBj0QohVzeY7KVr1BQJ6XbP5Fn3D1R4lihGQLVRx5tRyLBuRIeiVZdU8VFSJIYy89kLHh4Fu6Co5AyxFIrkj3gkAcNyD57/DbHfCwU6BYvrpVq62tUu6Doh7bVPTamCU/ks3bV8tRprYq6ZFQqzoUbJQ3Z+Kmu5L/Lvya8CYEZAkC1DzHOgJyxOpSZXEHI7EIo3YOsiJgDK1ajsJulW3DHjbCe5qdEEBpMYaIY40HUc2Qr5nKnb2aD9EEp+790sw39xoOZEMxLU0r6U21HLHgiN4bZ8wuyM82zNJdIeHSorF7LTxcB1vFPjQHGeW/bI5kfWmX9C8qOGIsR9ck/Gox62MKpcEwLATGWExyWRxHBPb+38M15ghyqz6j1CT//if7vtksuwDlUMJNC177n4iSquUoGpBDyP4HOERQdYYtlv6y/SxlwUgXVSp3zZZDhgpnNAyRRcBUXo2eNHmV/YCtIDbuDF0tH4kEB2QOBpmEKeG0cLhaVrV8yGCPXbUcxS2HWu/zEn1mdw1xoIr7pLMwF6Hg2FZwsG0DSLROKAqUwQz7SGFop3POzdyp3Kp+JxTj9nRpB9nTh1b04gs4vr+/G6mQnnvQ0iX/NrST3nIIKyPATjGDJZDm9Le1B7D0xTjtXnBs/7TCB09/Lq0XPd0O7SADx/ffv3+/GqEUD10Qo6MVPtleh3ZyBeTw6FAnEwNRjCKIW+ysshVLkcWKeDF56DV5jrO0HfjgOFzA0YrAMWDjjA6Z3bh04VuMDSE4Ghc41CIIxdoKOQAlSUC1WOosji1QclDhIwj3CsuxG2RiK4WREBzb/RUb7VYOjr9ScHzJTUcrRcdgOb6S4Dho2CouQ6nJQtv6QN6sB4L2V8BKZ6EVluNqDlq25djGWo4/0kiiPbVEt+qDavOFRx3Esbca1IDi8yPeVmU1jMJyXKVCZjo0btVOAY7mawDHt0KKT2K7ITQdeXAcntwq5lUvvDPSfdQq5eRFhFqW7AbDnFpRWI4fa9AqnpVFKIPpkLJVzdfXlzSMaMTYGMBxEoKjMVsO5PnDpXfObWzbsaiHisBkn8jZSaXl+I+9a1FOZNeBmQtLrAaqEir//60XSIaxbM2MZMsDPgW7JydZ3sHtVrce3o/7omq9X293XWpaqb8fBq2VG3YW29V2y4MWSLtFHJE5rIIxCkERyxTFN1UjpGFa2ismQ/s6xaTJBTuD5rhe1Hm9oUGp7+skAWn5WjU4ak5e8Z+CplAv+NiugavC5XIamLt711b5QycCB9ThQLmaREMIOiepXdQI9JYzVgQT3uB4Ijg81pc2urDHScr5WEXnm2EOwqjU6E7aRu6aZM//Bof/5VZ1cHRWsN7nCaDuDttpdWx+xwkvb3C0YY7jrEu1zQdsnh2CrTfxVZNKiIRQBPviN/IGR0PmgJ3jS1NkaLVXmw58KuxTQtstofhh3+B4SljluBLgCYWt4hbH+xa4VVgE5QT1czNwNPBy/yPgqKn4qThPGE7P03wQdbVwqkj+sMv5zRxNwAF5O7L7PrWli5YzyfHhvKFL0R4sIRVa42vxV9cTOHphjiEGR/kGi3UZUCk+lS8Szrgpuwc2oqPo2q6Yg7phjk+0XTylj+cmULwPWdMCUH1yCRysindY1YQ5htJ+BrdikqfIZXiC3ZhLcai/ShF6eoOjBTgIGr0Ba5INxXv4qqgtWdcwyx2NgtKGVCgNwNQb1+mtOdwvn//+BbeT5B0SvSv7o7tJtAYgE1s6MeDisVpzpHN6a45NwVE6mBAtgaTZxusDli0DLZ/LGxxtwFHysWojm+JyFIdD/VD/8jUvyJVMzDYC3uBoCY6dwTiqd33hs7uaFhFebJf/MPbx4s0czxp4uGv12ev22o07ODyeC0rCgtGuRcXLOH32CQ7qhDmU0RCa7btYSVRDv/vCBc/e5b8Na52P3YGDXh4gI3OUBCd+pz6VpIRrH8rwHOpEZcHBndBqJX7KQvb6jl0yB/UUVmnPiN0mVjE/O9R01ygl6Uoxpoc4Dv2Ijjs4OEBo+v/r4EaYBupbCIuWgCq1iopyN/DzFeB28+k42X0/hwL+MccICI4TCiEDyuuAoyq0WgEJSjMS7YROA6GPLcglZQ7qKqziECCGBHqVgCsCBzb7IHUPDq8XgtVFjKLnNxQrQxfzVfyWj6HXsIrhgGOEXpI53E8OaBol+VCLj6e8SdWykMNEX+CY+GKMrHIdwmOt7YFy4+Kz8cOxj2KyTwOpQRnc1yNqEplO54ZghcyOoTPNEcODchSQiAjaMuDKxlbBvhm3dnewiLmVuYZYXfBQgRMagW8BDeyYXAbsrkfmiNY6ZYI8upqeQR66mW5evW6Yl+gvrbWfqu61zLLrkjnGr5nuoIhQYqhQSG69ATian8BaeQLTZkdgNH102NMwWqh0xhwhCD7utPAp/rcHdRCPsFpDZB8zR0FjaUlAU6cwqm3Siglcxb8VtAdvd2GVyBwkMkcm1mkTS+vWQn60fOCoXeQ1Z4zBSlAFoheqW7XjpmKG7Y85JhTEYCBOGCTmy2mLLLoAjqpajAa+kVqWtuEB23tFsyfAPHK6Gz8yUGDUIaTII0qIcBKrE+Lc0cDHuoJjOLZdNcY9ePP8hKmlfO2YgBpOqKunxLlDt4oLiij7QdE/BkFu8IKsRhbv579/dKzFgT+RWOY7GHLUS8/hXR9gKfo34HD+3ufuMuTT8ue5QEplenRz9lfIqXu6vo/hI5WmibmWzyEGcqxrb+xiYYvX1S9zUEhDrESSZ0QhQIH8S7Ki+Qq6JIQ5/mh8DOtTvVo0hZHxcuoJHJQTR+xe8W8yiU5JtUmGCHKR6+LwkWKGqMQBVgKi0sWKWd4yJsLV1rAXDi3v+NQdcyQFVhTJDYaRzNDiqQ8mO4h7YDXZELp1yZZM0kExr7TOIDgfkwm3d4XqLWUZQR01kf+5VZQqb8piKspdW+Kur5QJCSKTmFHybx0cHpk5fGhLh4ps/gZhGda4AU96YbNbU2fgYBESBbblZ5WIxA0tHjtxL5dCHpEVJkY+2wwfaatp2+VUSm8ALadiTat9FBffd9Qne9Uc10sIlMkOiUqytkHiTJO2TeV1i1TUK0KPFnIobCRN95EyokFFdsN2n/VUJp6A9fL7zD7WvU+2K0EelahTksqTKCApbmdYYXfl6iOLuMgQVp3NnxDqPk1sGHts+Aj6t9UmlX/rk+2kLHegcS//0x1/NEJJqJVWXRETI9wKJrFViuSOQxU+SNkIqJgyoPnwSzIT7oeHYIU1rKlK1PEc1JnJldd6awVUL85D2GtX8l5/089Bd9ur5vj6vSTe1Bwydj8/B9YMlWcNpy+HQ8gFh5xqv9/UCo7nac0PqcQRi5GeR7cJ1IYSWrx5j/Hs+j7Z4XC7aJd8+NmpwUFfBy04/ne/TBqCKAfIaGr9fH9/X3YsS54EWROR3N+bPM0kJZrDeFvZ79X0OuHJH37N43kkHuD5utzsN2Gf0JblDvvfVaEMwb4ul6AFx3XJkwkch6R3I00O3v/csPF9fRWZuAi8rOT25fq+vu4rnoJsVVHMG7fbBlnTc3DUTDOG1xpH/bpT00srTLYsY19yzNQ167/YOCiJ43K5fClxFK7LXXPbiDl+fauROx4K5O/Lryq5g+P7wnKEaWfUCI/7O/s6pIRCKUruJPP1e1uSMyH7hDlQ+8Gtel0wrfTC85aeEO3ArkeK80szv1s1OMjCHD9XcCipY7iv+IOJOR7AIArJnzFJ+ABHkhqkpIL3/l/MHKkIT8aYHDhzZEMc5FPI589lRZt12eQIWGwgyYsmqeBjbWhE2WtRg+MvrFJZW4fL5fvy/aMC0uG+3r/2JuZ4kEQcSkV7/fX73eUGjh+pkDevvnoICS7rs6zibwg2ag5hHOn9uMyj+8YK1ZrHZgRgTYNb711TUmbYF9aOhFOX5Q6DOqqiO3FcLppb70c2sIVVEwh+6ePv7/hjuKPjcvlJGs2lTCET5JQ1Emb6IxPvTMVcwbE/VlF8gyBc6SNrrFC3qbTw+l00/DUbataHvVJF7A83u/O6gHQmWLj9IQU4/iK7wyOo4ht9VrS7OzCOSc1Z1iV4yDPqSUHjRA+HpDaLkl4nbP1BVltN7gc1eXlIXsrfVD2DAnAYLtcgaa/EkvrZB6K0mYkSTT4VJo5XB5L+5KojSKXtSWVJWj1CUocIq1hHeUJb2+tdvqxrqxRRBgSY16ofw1gLgk8dlY+MOCCuNCjjjziBHuauT+vekz4pMbmeCfXMr5o7S1b/udQdqISqTbrc3G0cEUEX51VoDen5Tl0VHgaZI8YfJxcrtq6ykIuynvPkC4kZw9TczZiD1ts53B0ke+QA/zhkTsY0dgiaQ/TYIXPE1VUSOgIPrYh9E+n3qT+EKGSzftKeqaQ1irHKdPd/2l4nywcNp39f8WCftFyLDvvEMqvNe8uWl9jPwWfDnLbgP/KrHkt4/C6hBWIKPamC5zZX1mObVbCT4SxZbLgCbSzg1YZtT3e0HABflHzpp2Z9SD1bJsZl5R0igTLlB+Nrfh3hR2o9iImQpKiX99myWyR1h2vJsdp5ty0ybG0eonh8Z9v+QCzmMvs5oWOeORhmwhK/pHn12Lv6i7JILlLMBjowkJBQlKuXxkvzRmDJUORXV83+KQ5xHGw2LARcpYWLZuWObk7oGLhXRbIWD6v4YDTDW20FVytXFZQcm8Nz6jNFuWi8xdZ7UbCEVjBA4lm1hQ66qzPmkCyqpK5qjTvyjf9Pm4QJLenAhnRIFqUz3Gmm7rD1enAY5WGQq+hglbu8iJHddj0xR+Y3SWnAsBpdEYuxaGopjMFAaYI8771Ni31pFRxFaQjfLlhsuIbhRC3Qx3xworIHOPqxcsdSquj7XE1oIitKE4YMdBRFWqzIMeRTT1j6XC7KbWB5Wu6wmstuwRdYT2z6HG+l1PRFwn7Xk1s1rf5pQY/lhhEr5FRCUvlIVtwbUp+L80hew5WFXQM7gAC2hQfT3o5WqbamE3PrFYhnanMtKj1351ZRRBPzzEESMjiwpF4Q4nVb6S3l5pAJRHJRrr6fujakUpPF6vaOj431w2z9eItmLCVpnTtjjpgnaFINEnNQjCQpRRjElc9aCh8TgIgnFeVKLaooym2sZ506LdZA9TITrC18OnujvpiD6Y00XppjjjCTPg9z1Vkhbb1NW2szT2u821zd4UI4VLPS0Xr7thhbWMbh0qg6K77gYTUoSuBOvTFH5N/GhhMLtrLKQxVz5GW9wrTqhD2S8l0FOMpCq5pVaw8nnJHWJjEPg9iG1UL7/fdupuUOkVE1uVYLzJGoBkmlrDAI88eIJrs3y6OPP2vrDnVqGy0XJ1TweiY3eYed9vvep+UO/TEHD7C4GsktXr7WaRUT6YkeJIzbfVTzRlQyW3fodjQwWiyb6ucvSsU011fVxvB9IGhPScAJBykbsPqShGck9ylR8cse1oyrFU8ESucdIguJKttRYV8BLseueRW2105zg9umoewoO4YO3aqQYCJmjpB2DCaUMZstVygQcUTDw9iiCBzlpbIunYAo8W82c5rUqQq4k4atEa2b4irGHKmFOzFHjBLKwyzKQZM7Wln+RKAeLvX/Hvd2CPnZb200W8VQ/2RIORdN2VURBOp3DwMRxYpr15nmoDxmIo6bpHKX6emEbVLPK8wX+AYhrZEeo2OoO3QZ+GE8u2MbIoA9t1La5tR66nA3xVVDrjZE3zYlFiYQaEas58yRNYgI9JN02d7rDj9PfgsAzjF/fcbwJWpuN9gE0Ck4MqOKISGp2E3zINIc0TRxmItuaexPmiC/34eXVuk32YJjWopEJmbd4rIC14KFaiW5Ot9rrhVT++rO/YEjCbCIdwOKVSUJl8iaJeQ+1PwwB0mj3KpHjorwvPFOilJbs9FcOXigRGcqrN/G9GLOvQnyIOJDyHYEufYqbYvKh4pyo1gs7ZV9rVuC/KiIiOEYRW8W9sANQbCu96fFaqeOwBEWmYOyjLaAkpBkC1eZQ3J8Z2ikqHqkYAdtes5rzWxR+LzSsu4uNAB/L/Ujg7C8KREVs5AgXmbFzSziFfB56Zai3uQRVu2gpXtzSsw8LE4nOyyHFCufBtvs66hCjuY9dgcO+RLkGItnO5bir5B6X1I/7TI+qHSkW6lM0AZu8GITX8uoAUNg0W0zV+zeJld16FaRXF+Vd7yyCvdskg97oIQsZt3fuby6fFqmryaHZWFUbedGolorYXfofLfW1tYXAxw7SZEPs6TAtvtlmS5xTchSJ+JMhtl6xej78qNkzZ9ebdvCEwUwLJmUlucBKjz1TiZXrYRVMgpSgzfklm8QM4Vh1g/OR+5OvPNIkK8cPgB1rqFtEbfK69rGTnqZFkL+qnY9MkdYkedBgaEwj6ewMKaBNVGx6y1Tq+zK2qrHYQ68VH4yLLE8yt+v2QuAgrCs6qVPcCjCJs4YSdWHaAYHziVS1aSRNcEAACAASURBVFbIq9yn75aqRzbdZb0O9SgeB9QsOJKW+dLgH4ODgI6zgIMWEgXcEcSGqbwSN5nvEHj3LT1mj2g8mSLjZ33QgaGlD1tjttAC9lRN1judO2eOQCQnz7Mu8wXIZAduzlDRInMMjwS5eW/Gsxetaq9H1dMW2HaofBfVidBTf+AIOm6wskySK8l7O7K0OmeO7EDAisaltkK8dpM3YFlh+25+MoJeI53+k5ojVOAjz4NIzJG2sq+eeVb1qfvoArhCzBW1rlMdYGOs+Ss7SZEPxeJCzSkz3SDcEf4/d9eimLYOQ5uhBlttGQX+/1sHSUj8ii3ZspMsd7trSwgp6Fg6OpKsQjLJ+Gcer0DsZEJijia90HJJKI3wYvBmUdyPsShZ/uRb3tIwPjbMH/l/dI6s4Ep5xYiW9GeLIt5MrPdXFA2w0eQo3+Fg0kRQ3EMQRktgAWKyag+SfYvWCUeZP8JGgJe8VeSnrdIRFfArM0pWwCE59D8vWi/uWue+DKE9m/rble3+WVyqexCJXLc4VJCYe0qjchuspvEKHjhQMLDgZrTaVF7sgOdUVNePogIKRlXK6yH0Z4uueY5g7WNQIKfM3UC5XH5RnhV5ob9MhxXWN+5MgCITHF1/7RXZkoHoip5XHQ6gNTs9z6bxb3V6DEesGNHwDapXKlWzOP3TPx4nFSpZVNwO8hqLIzcpU7F7VprCIPMXRRGcklRAuP55Hj0VHL0mgmO4LOnCT/Mb74EEjsfv87jdSCfr/nWoGIJmz3G6Pa/7UCE6f35Gp1+ZRhpbsDH6QSJPhmDv4kpb5iUzzowWY9Y2gMh8R5AMjn6wYcIKPxyq7zsWODQFHP10LhkcvxFwGOy77xd0JDJc6jZc9hRor1LrTbLbjo5tE7mQeHdmaklufDS7CYykAk5GrIjBUk8Mweieo5scx/Me+OBQScdx9cGhAt+ehsv+PgKSIZA6yLGV5TLcEyUDQLg+5pyKku9EWV8ZZquA9BV+xAbRddA9x5Nz5IMjLnWseg5vqI/ubws4lFO8G2iSLZlkwG3Nxo39xX90GO/bq1E2gY7ucwqrOjo4enHOMd1DSVgVFDzU4Dh6AujUxGX6wLjeWeZgZZ6Eh5VUzZRyg/YP2d8YWYm+knXGVAFJQsfLMq+KgQ2S62B5Dj3ew8scIQmO23AoglqudJxyWOA4vS58CnVagbf/QFYgRSGcPFkRWTeCYmlWZN0YSi8mLAivflzEQevQ90Q6DrqDrgPK2Z0agURK5SqlaDb8wtGpPz3/EM9WilyhpYaLKr8HsawPMH/jVMwyZebqz2xZb1HgSE/oZTEU7rhculTYnTuy5v45/CdeWwVp95InI64NXewI4MAaCzArjiiddo4lDyBzjWAVpLCFV9pxDIk8aP9bHk4uN9AHiAkLKa66qtP10SDzvJ9S+dQFDtEL2BHdRRvgBKKw82ofYI0PWyL1j7nOgOyV6rVs0dXGwp0Bvw/qOTb1Ip6g7vUBClqFNe8JefKFPFzrNCGS83DSW9bEZ2gdot2pK2MbIOoyQvR9ZRYoucIB61h05pTN0qZ2lhdJ1a9jIVhXL0VYSA4xEbTjBFVbeJiczTLToQCbwzaP9dMvUFkISWTwCq9bbyJoVzms2piSW7fidXNgclXGZia6NoITCc+ju736AJRqY2S84iHG5Wq9qWOggOM7Y1XEnCUUqVcrDqlKiAeyX6hstS8chLXiio+QyxXqIYcqmappP8DvRsvlDng1NQTM7OJK2XmN3dTxwEJHkZ2D9QywWbuIu7FlDkzGJZgp2iJ1ka2Q968Rw6CAgyj47dIX+/lvwqoMUxeKxAplDsw3dRRBCcraYmTpl0oe8K6DJO8WeFhe6Ogqh1Vg/wubh1uQsx8g4VOWDamQDy2Ju8CitRzZ9ya1X9BxhA5xy5cl77PMgesfKkondlD2TMy+se07R6rdAaGjY/sDHLOGkLHDVixdcFcnSRNBkg6QE1Lh+lVxq9+XGbAhKbQ6xOgqX/oGvQqS5mleYIGDZ42ETKtgB6Icc44rIBQPitmGn3xJ8nUOMbqKk1yC5lqIk8nNGIRJaWdChiYgu/Mr/yrIxwsZ27W6UQ6by3WDJwgQ8wgcKsuD5lyeOoaYPfeNlibCRqYmxyEwy83F1xQ8Zi63i1g4+OoFNK5pD2ZyqUM7UXLJl97VWYJFINmhYLXfJ/kmr73Q9yE8ByxeAKb/sUhHQhos5eMKk2871lhBy66CUi/WwuFgGzdlE/YD5HK7RDwFfvzUstBq3ptDOu1fZhS0YqWcoiRMC24f5V25ZOKWky4gnn6EbQh8e09TdDDxAkLsA5g1uYVp13SAwnVM8unWFoQKcxYAzH6jnVzu/rNVhvOAADO3rR8iBh04C4ozud8SdiPkI1DoxfJ3vcwchVMtpVzwhp8OAY7Qyg+roiDD5EE2k0tXIjBu2klCwDBTYkdG3Y1usJ3tY8abED5l/+mqzg2RTE7u/xg8yxdkILCerKq7CywvXdVmQEjaCaDsC35IwBjjmLSw9HMEzgGsHBMEmsmdn4CmayXJTO4pt/WIi6d6OoOQ18B4Kgzzr4L1l51QLvd8lLBqTuUa5j8TEDAei6z0BbQcEmWHch9brX00CXvYUkBSjliSzWfO0EpNDGPB9eu8e9dhkXATA35qFwJ+Ys3fgFQm90dohSYLfOgGBEi+ZlFgv8nyLdluwo7fdp+u6gxWAeE0leVWbISAg5yAIAKFyaqfbKpMOoUbjNThNjvY1ADroWDtyftPV1lhlCWS+07Byvdq09Ws+I1C0m4lq7DpkrobqaLh6zIqp3IcDx4vlwuGFwAnUgLzIZeJg4sBKJsyHfAzZ39OLk+AkBv8L2er1HpxfufpJoIiQcA5bnWVBYDFc8Ba3SEEYBH0L+RKq/XClJUeWQp9YGfe01sO5Gb4GQaWUfAqkNYt3po98304AjhMVNj+w/ihQ0nMbyEZTkE+Hz9VWPJLP++ovo1cak7NFKxCopEGxE8Ep153/+kqL1/7+uO6kxkWXuGuSUPArhuBkEfhJHM9Po45oVWR3IGVMIk1LZgYbFaCFJJThvtPV72N2vYeDi5Au1VXECkwgZACAvwyeOqmTpxouHAizm6kFamck+S+P+xrnQ7hOQCs9d/2JpaDcH0EmOABK+MLq7PZowgBK1mV0emEFNWBvTtkpjHQhDjcD7xqw958ys8BPIelY9gQsDmHdrwKuABwxY7QP5BskAIjWcUbbVjDtDi5TdJqjAVOarO8W5UX/D6C51hyVNZ3Af8BLkt3ebkVd1lpLbe80bj6SogVLx4JWUtR+IPxhD9Tf0cGmljqQG5jFWkjy6Z534+vbufoeK/qDhYW+3ag4H/lAMRj4gElXa8pJrQ2wEKuuN2+e/LPRYEXiQ/Hww+ZFSf0gnufXfV2FjCnqZb/dCiT5cMDPMpte5VV5xAf1+DzcaweMbQi3Ch94xvzDky7vxCM987IB2CAWz0FOiCNB1g6hBoGwXYXXtEJBFNXHiOZi0eQsuLlWBJvv/tsbQ6Z5iWPfKyBhfz9DA7DyGe2AbMPGb5aCIj1TzCZBaEiRZ+P6ECNyqrXGfi4/ipYUPEjd/ZbwVJdRa7EKq8Z73mv7KWPoZG/DR8Mz7GQciPImkOvICsPdIH4fATWE1rRsTxUN0FhvRIdpWneT7tLySp1eiNI2exR0ePrc9+kA0aRw/ANEw4MeLg1I6DXFXQnMoMI+YYoJYfYWB5s9vk1aMDNAW6e+C2eEChcjjA+ah3660lRey8u94sicwmlgUrI4WLHTdqExRJwjT9U2sv3uqHU9CM1HqAtjq9DZEWr67V36oCfb9tPrkFhzqnC06CQ9GLUFb8u+rE++wkeUUYOj9vv762nrfH3v8/jQsNR/zqABA4A9fcCcw3JwDpMRXAKqkY6otX9YtZegatbLMZ9+Tscdx32PdZX/Z/ncXVLcj9r7waIbNwxh+oIbLeE+b6glFEQZ6pG9nhKFSrGGDn0t9fx0BSDn4yNYvEdDODoO1K2qrv/vas3D19YuUXSJ2gAvM6d3IlFQXyozOAIiPBOckr9GY7elOjNZg7GMpu/0ylz1UQyv8VKaz8NkvKvLuRfMMHIu8Fx/N4owVJ3H42NBKQRGz3Nc6hxfVfWnq7K2uB1fuxl8Xf/Mee5w48WzxEcG2cy9X4Ex9WkHi8+TrQJzPkMRSnrxvxWwlwbYNf/SaRqvft8PP3G740EjjMHHJrqObrnkj+Ga89Dvf4u/7O/U8Pf6dzgY853d8NzrJe6L1HVGFeBQTlOzCQ6ytsABtWCFiQdWxgsbobn6boxjbwfsPEAelh17xjg+KR4jsvbhi0xcAqcnLrD5dxkVa3DOdzOD0s9V9cBHMqsei+gHM0oJQq8PknKxJT+xs14STkiJPwumMnIu9OLcihismoIaWjnamJUddZ6WuEvYEoaBhWHN8V4BmDvcw3ZY/hrpKnmrK4VVvm1jGaVu+qvE+WYcfTyt18MRkqJn1BiUc0aK00lNS2H1e5C74hr5KrvNXEL5U7dL0BN+3YaOprOcRkPNUNhEQXtUqunzb7PfWe13tCAyZWYUuHlPh62v3BE9JmS972yEl4Z/ePkzxXL4wxyUp+UIMAq1t/umvnTHuJjD1n6IBkbnNqqp0O4eHUiHi7ALo8CVzk3i06mB0eZQ4fqGENtIZaADpSdOVLZKsz7cHOrzau0LMm4mlwJBwvvKOkxBXfpuMhL7aMIaIRQJki8GhIzvRvAjRVdGXXvZsOIBk8VBO0mscDpH2c37slMHUDp9GW1xb9mkRTmLCnUd1iuMBdqgANe4DACqRQWfFhYPmTRPCBQz+u0owdq48cvOhYfz5MnNir5xs1ulBRO5qwaBb+5XGGuquQ51BIOzWbucHIdpuu+Z3izkHf49b6C42Jc7+JUn8TmubHUDinuQLcM3p1h2DkWqYkiw0tzBgFn5NLlCnMrcI7BfC+wWLENAM+TrHiNmZaDjQA7stLzqBMvSex0fBgtsuwPZIUNSORd5YQ5diUiyq7izXxjs1nrdcChJ85h1I7YiSvPk1DgAtZltNVm6HWku+XywJuv3p4FsIMe/BAFqIRPwLYLxYobFBtepbpqnkMb1VQ2IOJexPvOe9AciaWtZzl9hgYXCVEOfkeHVIkrEkIabL92M1JQme9E4fg30gNipENXIuQKwPQcjmkDOF4k7DsCgHHUdrtfJNSI/r7UK/tdJmNhcRxQUL+BWziztbNpFIXzXiIh7CO7pe9dh1UvRcIEwyKJa/DwEPASHijAzOc6zsSg6ADG+FEnWfXpSIAcHbxA0qidduKwBGxzL1E/yX82/w39koqrKhFyuCyY0IFMlS3vmSlbVwj06k7Cggg4ZbpOlniIqn5i7zZmfSB0LRsb+AhkrN8o6ioy7jJ7d/Z2Skctz3ExCYe5sJt/NQREjXiK18NJ0OFYwuHwpytrdOKYXdZ1kQg6mopejaiUeUmhvdsjb8H4wUiRDl1fBLQ7nozAynQfEDB+J6u7JhVq8NNac/YKAo1ORVlDgSL23IJEFDA0Zt9hZpKh7D6RhYcQ6TjvGxxqrrt1vEUQGkFdY72qxA7SLLnRruRa6ktCg0CRxj9QYG2rcNmqfgB5cWGlDeR4NZwoTjoqcg6PVXjQMNADHh2JxFR+biukr+ul8h06R+VoULQqG+7ItjEVZSGkhO2K6bjTrsFhcA4LCdpMXbkxlJvI8p4aRkICOu/ZCudvmRU/fmKT3V2oFSFNRn8QygOxgJJnTYEXIh2Xrnq2CmxtXNsah8PZtasdpo1/9STDAy29HP+ouxbFxHUdWLUB4qFwum3//1sPBEqJ44ckS07K3bO324Y0CR5JM3rYMpppb//pl1LunlCsiVROHOcWV9lUkDhxjjDGXmJYupEhpegOcdpj7mYGHjYiFj8w9h4QTCSExshVdsApxNfFtqq2CehNoMIKeOWxG6Nh62d3Qh5x5mHuFHKsfViQ9UzqIweM2fdqQi5Wta1mwxaN3oeVvVVL3cz9vTZxlXdV7rBwHyHyJmGW3o7CrjBHyqxukRleXQ+/eFk6Sp0E7yNqaAyXHgKPFVnLtLArdNGeB7ED2PuWwTGc58pTIkiarf0YBUPkYoaYhMjQkYiq5HVOWu4Od1/Tz981FkNCeg8i0/P0TZte2eBKyBOvBROJKhGH+VTE2HPM/U++z3YBjpN47W5p3oDyNyBn+l07UaTkjlmsLyFLNmJuhyRgwh8so62wKNWdl/XGefRhUdCeoif3/z0JudCtsOasGmM1oGQR5eEdxMZbgwG2K4GPEck9GxPS4Vp4GJv7eYovymkk2qAW5bxPyZA5Ry9pWcOiIreNA2QmoUHg9VUs4CXJArYq/foUAIBhwaYvp50zacvgKLmKJTNfRl1heViiK2SI+PySmVSbAJsmi+hmUYP7U0UAYkBhYIiTtjowpWplEVf5qlV5ZCR/HPP156rEOTWfO41sqHX7c9Dvk4lVre+LxxzQnndkxufkd2QRV3XiHDkUhITgGyI4RZCIhoqGWM1aeo5revzIfObdiy22kFfhBoMmY1SrA+xtgjmLHcn7g2NYFBwOi2bzeb4jwerDEO/4MWcdQxRVvS3jBXFlh4e1E8RJutE+tSC9Of3ZnNlwqlG0iKu6cg4OVpYBWEjrXmHJ0pfNVPcMICM9LgnnkVlicFoOmrRG1151Xd+uODsEAR+xSJL34xwC/pGiGCm/sug2DKkalHxU1aaRiJOCYHgNSKCmKK6CN066QzX3EN7b46ozreo5AueIRPVJGOKOwQSTv4OLUXQolo2kqQBYrzEJW0Lzik1WOzZIfNA9RVGsahBXDR05R6jFUVH2PJRT60N8dFiObLjRca1WpVq3cDrv5lQrw3sxouPWetXKnoPtWlLpjEXOfKEBh5vjYGtVJV8Nw9XbdyqCYsX224Tdr2HyOLSiow8hD/VAKkhirXQeMcTpkZ+o6lQqMYUqu2bY8AoNcDVuy66TY4vSNez1qg2pValkSNxWmyiCD8sOqucwLNsgaxCncBuUtCunZVKiFAm6tlpwsiFKn9tc8NMcV41+nYBNYdRQIheZGQ0hMQCrEFX1sYZgKUuqueboapqxESfBYea3HzbXra+ZBBwMFK0wRANHo/fQoq5KWNKgcQFwWi1gZRaE/b52aQgX+4IGH9QaV200rMrhIhRBEwdj9/nRRz71Qxebi23YYN3l6zhZXahyeCjXfsCW0txtg6OQH5y3p4dcgr2Q5DCa/a+sn2C2oeJlFfga/VLYeCRt5UHrTh1/ChzlfqlFo9TdcZzUhk1GM1fb/BJZyMkjRcXuUWha+K54bKTk3ZKA5OdJCkl1Dh2HePGhw4r3gB36gLe5IcBsi8LG0tx11Cp6gIXsc4VP37SYAqpdbaJJgLI6PZFkzDbmcFnoLe3qLYEmDCj5qmEVebmSH4xEI3n8DCsqmpJzubtH4belVgGdOWm/nYmS/2HOQYbRVHzqRycH39pCnXboEd5IhGWn0efcsxlN2YLCHCCn5oZx3IeRl744f52/Ln+4kdU4cMERLmcea4C4oeLt4/v6Z2TBJOw/9mN+tmj8k2J2XJxCQ9WiagKTWqGtf61H/4noTvs1pI57dh20299enHVMX/9Nr5GZL/w6M8ERphOfOZ4hfP+7vj5H1sEfr5fXvtYnFZ4dh8E2e4padvMBCdAY197BjWKfNfe25JnruIOD7MFx/u8r8MBxnk77xQmpruD4/AVH+bW/YuP1g1uYmHAcWyviFoqhdjSZxWDYQ1NYm8MKcxTtHGbJOga+5zjcwXE+n8N4Po/h/sV5+iLMvn3567ref/81fTEuDpre+wO6HMGgX8HqAo4rNp7AkVeybo7j9ZVZmkLMcVU2FIA9W5Y5dxCSVewrGfu0hxi2zxZP9pwIVHiOqaeDLn9N/z/95OdLuryuf11A9/XjZG7fodtBt8Pp/p7pJPeo6gccVIyXprDqM+U5Eu8TgGM+kQfSZWus2MBkGZVy8c5XtsbYqpfG8YxYuI6dAByH37AqdfjsezTeQiWqHCcIq2h4eI4a5yBFWMVwHJmwAayjpASzW0EVb59No8pByw52XZlPLRh8Zh3Bh3M8vAxLrboe/MWKfsL3xW18fvI4xxRXfTCjql25kWMr7AMv3a+xU5sfNvLw3x/bPNFdq+FJubcXh58M92NHFjiuZx6ziQyaibNv02ucf5syDmTc7wOfcbyhwTyh4gGKZUZd627BDENEBAW9IAfv3/HkOm6EgJu6EBzLPrQp902Vf7NbaHfMDkD0NMM1mbO+fN1trtdwam4OyKFL+d1mh0C7DHll9VO08JOsnRrS6ofIcfjvX4ecGgUxDakuUP58HH7UBv3itd9LR120lnzjaWeyRaA/OGrrm9JxGMnwMQ2gP0oioo0SEw2+zZPqSD8+qBwRcsgsVAgo2smfDdPxJuc6wYPy2lTi4PZgKv0DfiEvHaq7DpQ/SogUXawONFkwtM1UqF9QO40G9Q6syNJz5HFAecgswJIGzIE1VgHMtJurzsQwxyrKCp4XsF6eGy1BeHByWhEYDeCoOBFi/0vAxo0/fONWN+tqpKaCLyEI7KfW8QtMsGFO3i5JNSKJDqWKQ3hbOuRZM+SSagsSBX2L2xnB6DP0pEdgJQMHVbIW+RVPys4PeuTGjxl5R7q0mHbXvb4CdvGgjMDotVWUHyVq99XiA+PX8bnEasXYSmDsqbLkqeRlKNd4u3ti4y492/C1kpr+nk4WHwzzgQYU2SdRfn5ksCOBCYI0MRMV0SI65UHQxqGP/sXJMth7E10Epb2B3ljU5XGwpmKl9xxUSVxUAEBMiB3YA0BRX1xSLYaNM/8xNRvRjWy8nUE6t3WIlSk4qLqoqcrQqazoUkrU3RX34/AI0lGxezC0lC3XVsyrC7r4VBOeHdLmwlO+DxtAh1R9ohpUJBSGxEGVEcPWzmSA+rfZbfbi2D9VekiOUnXyjk4b0HMNJ43IATMPqsAz8LJH7zw7pJG+dhu9Dj7O0GRfzDajm1KBu63nOaJWWa73oGVZOyWwEd5NFyrsz8JKd0DAnxsQUW3VhbHRsJ/dDS6wJj13t0m1Sj/CLYYB5WBGu0xNFY/vwdeo95aD0O1SutW4NxZVrk872oImigrYSZApnBMO/QeJnJuXBmGqplvHNQaj+LATKu0vcHU9d1jrdcXGIVZxO4wsbMgYtMcYZpPc9Bsvr4YCeVC7Ou0QBFH5ulrKp9OpRMbDe+NKxEqftDBiR9kJbao4FnxFHUyaDm3wtTY6qnVRJJRn80fMIHRYZjjWDdBrKYdtXJaaTdXLqUQhZKvwwRQlbqScNh1WER8J9eFXv9m/k7S+BwJzVzszbJb4ciOwGm3hZTwgVCLQBanuU0LjW5yKrNbyHURKQYrKqcGKw5nqyt6qGSxVKFUCSkPOzGNfgpfmrQm2/RJohLlbX7W3Q6DhEkPCKjWQ06xMPc6Me7aMM8clg2eN4bCQa0UtpgoBav/wHxbPP/+KkhVRjSM0q1IJGnOQ7zcuioJkMQv6ffrocCrw4M8sywSTgaHoKTQJUayPDq9dawotU3lsbGDzGR8stPdut7Vpecw6Erc4KSPIFSWrjORKKX5B6fCLCpFWolJ3wsbwzoxCBWadR8dVdRMQLgFRsyvTLJekNBiue//BedLul9XQweMUVOYQ1a4PivyGbqBCvoRIkUeGrX9oL1y19FkafbeLGgDNkzyuhQ5tDEXCI+jZbySwwWnp9OK8FTE2x8Z13YJd9vf2Wu1wgxXq6Y4tDFjw5R0TNk7u5moDLaWtw+Owkvm2jJBgdCkroUPYAFtLqFM5xrr5jVPHpQuxPNVdrdReBjhkR7c80Xb7rMctOu866BDU4ZLWjTygUsOGqijQdhrG9sY/oUGHtuNhzP3f8rGp2EfOz7cKOhQNHJSrwKLatPU5NmBigMrqT3cvUNyzrblCFgr4uN09Or5rHXQwoEBqJhLBJ+M3JEVsEIhTLcVx6aG4yWlzHHfH28xMkOhUF7PUN5hdL4osyxwroIP4gRIViwop60x+/psKLE+qUg7r7k91iFLNcFiaUjetSrlrL6xiYd2N9Vd0ebZfQzBYXNx/M3iIPMXqehlaXYPx9cL04XN9JTaBDqqrUaTGQzxL3WyY+l8RmDamZ+kfFIrqn+SHEtezMBS3XPluHc5BFZDwk4OLKQu7qPFPU9qhlpVQ+hwUe23KGlAYeUPd9s9Y3Qy0pGk0V94ZHRVykc92kGTA29T3Nyqn8OhrprTTcVzHdrRPeveZ+/8n3O6tRrcXOh6LnCT7C8hazumGjaP0wwAHEPD8aFE030g5B/UydFvyqOgdsFEoDC6dMf8F0yTE3UakXF5/HxWirxs23o6MCGRdmwcPNG3JULddFThqt9f9/r6rY+eswf5MNd9y2MUDqvxndIKp8noOAGmsm0LTKdD7ciucXMQXy1Hve7eEB2WIRmqzGSpWUOVmgu6eZymI3Ss2Znx1vxISRAgoeZO1Ue0CJajgqrNH5hhTJCXd3QY9R60EMWLph1zqrzWKbvTO5aAbZhEgVkCsfIrk5scpVtFBQwjcET7D+LYP7DzHONSGef5+HUS4OexYw6JRWfPKdje08UzUTHe6zdp8i7z8indI/Tn0m+g7MrMy+ykiHjTuL6+Bh43vz3+fn3um5wgfe76X2I/sGVVUoOLmlgV/wvTBVNMVOdnWXUfX2ykhdeCNeDzgEfbTi+M7hv0FG/8+vwMLHGH/+hG4FPuCUH7ufLr8Z2yg0/PdgFT/p5P0LdtBdbrx4wwdN2zsWSz7+3NCx8gCx/j6+vrBTFtcEToyy3BvgvSpMREBD+pRVfi3AIj62Jo2gcDsFoV0vHZLTJAd354yHgLPcZiiqk8mOD4u4HgdOeLTQNMlhCGx8wClBvDksuLgrHtdlY5G7EmtR/Ho0eoa56wrg0JMv5o3RQAAC8hJREFU+zFc7g27YJuImTk7TaHJNEr3Dg7WWN39xXNcwqqBA479FRtl1/FY+D8AZZDyXUQ3oLj9Ji4LS2LLL0QB40OH1FZwXZ0KRYaBKEv3tXs9iAfd0MGTq4aPi9/4HjkRWJgcx+vrniPf3kO7UB0celBkN1h5KFnWDsbWr8fEQqOzNKtakPhiKXc3epC/mi5RGLhSLk1SLuPoH2fwcAdU2oNgHPdhH8aQqVCczd+5hFQdd0uBx0cDJmKdZa2Xmms12nQZNZ/Us7KB+dRvmu4ED0GfBu/gy3IO06s2Fv2hzlK9a3YRUjE+8r8l92CVt27sN7qn5VmNcZGm2zVDzi2lihN/TyqVOAcExXEGgbiEuetOJ746SNfTn5LomKP7wFKtdp3BkSihqu2e/OM2YpWqZwAi4O7IBx82dlFgIXoWpcBtrYv1lPYZJngPTujgdvtRdWs0+nUbxaR48kYFSs0ag8ZR+MqgoYQ9H8KrE96g7LbNwTfdOJwqEclmE45ZTnw3nHQ2QpLU+7+7K1tuGwliZtmsJJD0/7+72bJkW84cQDd6yCRvkSVyjj7RFzihBeUBGbpRR36IqIEy3MaUfYWA4Pq2QeTZlDO9vvjlhWbVNkw/n3RC3L6rjUQ8Ck3hvNhGXjjl3rx+JuiIlRvTVY02FO9S4ZfPeKA9Z2BrpqrvrXyRRFe2pMOhBznWtyL1sULwG6yOx2oLUt1lhfIg8g1Jy+uuNq5rpYysjcLOvEqBLQ7Feu4qf1femTOVY/pBXb7pTrt9wvYEUvUaGsJ7+LDyUJ5Dcq3MZ8UsXlfCChqJwr1YItybL+zL4hyc9tgaakMF3sMOiifTDpJ6Qbl8VsHvhQnj6nCtJIg2VrlPf7m+w1Yu9thUbti6WYZvtyQSGcLJRZMqlm1lbs5pglwDqFfrUzCfB1canZODoEB7ZOoeVkP+vfivoTZAWRGydOLvutJKQOtN+UZzBVrIwYR4KRy/XiBYnMpDsqWajQ/fWePXLRT9h1WUngtzLVvEaTxr4fYsqT4cdHezOeaTPqDtJJHtj3q/dki8LpjtzfeF52YCfjmBbEdOAywZH54G6cte/PzQlm2VbMXzvoqfNzhsCSUMLJFnIJiYjv+BZAyj0KzPKCfvmCz0TIMt3V/dUd3dwhyzOZidwTX3sIuUSeW3qO3dcZFgEhLrXdeFLXXylqgoiYFg/DMNBLtYQoLbxN+eWlS/HXEoWAdYnBI9siXFPiZaAw5igigJfYxQMq0Gc74/V5lNf7aHwzGPxMK/NFD47YhfLPedhulRQypW00pf6NSP5Vk7ajqBWAcKaD79jFvatgp3j9653PR/eMYSXKxUEh6S3TQspuKQbypBomnHnBiRvPUd8WtJKgLiZINVrOB5CMzvgI9pPEsppo/ZH5O2VQSkurPG9mxRQTcMY8USglZH8v9xh9Pgyh6odN1xJ8w9ybBqnthWvxLsQfLF9kf67TS0gbE4mZVY+0ZTTO8Dg7/7FAZGHwSesSC/S/NfpmcWml2VLb954Fa7Mbeqn4q779a+OxnykDzVhGWP7LcrJXsgAmIdFbfCGYdODV9djyh3tJsmbL16v62VLGIQYQhf3HovA6xzFIlLGDxrgaeIYN5owAynX0MWtXMSQhjW1ZINm87GX4BRefxCE56DVTs9YWFjXoOFkhuCsK5iVE2dDVskA4Rkbtrfqg8HM8cE5SE6O3IkAeBcIumgt1/uuey76HNsCms8BcRfwikNnrIBBK4FNnFULiRpAZRKgzd2miNbluIQ7rq8yuzBxMa3T9Yg/HCwmkJH6pRuMYGzBnGRzHagbOcsUhs1LzZ4TC2vp4d1Dl93vQcFd69Z9WCN2+Wl9B9SNC38zhJuO9hgUfBgVN8FXG9HIUF9eOZ7hjm2lkHVZY28mrSMysNI1suImmIG8NM7goDPcZw4ZMOAhOA6CGfzj/sXIiWzz32Ne2DjrcEahj6n5wOxitWN6H/Igkdwt5aXPtV2Z+T+ittP2riaVMV+sMZ3iApDGekqtaiQq+Bpi0DovWU7xp7WtF40xwRdz8nnZvW+dnlojz0XIX9E3l+v6Y16cuzEpxyhmEzuOHTGznzZJ/9Lh515YI7LjWOPUe+EO2tsQ9bAcnokpqxi+rFqyvzDqfcplMlE44narlBUgGOPfqvcHw+D6lpE/00jDLpfYkv0VsUSnfgB6gFp8QkzoUMiw2GKCRYwmHa5DHuMCzYSBhU09xt2WZZrwQzeODEkFjGWSOQ3su2lKs0URFxl97Eu3ZQ9tuYEgh9dgwp9CnIN3jJy40t9g9YlEtAcwfd0ODdJK9DcD01wECuauOaDRJHt9ZLMt8XhVDVS/oTLS/dPgHx/x7hweWG9JqBHjLGIau2nb4zZo8sab3+yBm2TD8gnJm4gquZl8rtPbFgmDzA4mQi2nNYIhyppefWDqHk74ic0FbFSVRCn+nugJJPcxeloTGW3bDMjxc6bl3v8aPNHkzXGOVRYcBFpgEXI+EbMhYrO+ERSvSyt7spnM8D67bTv02ty9dZijwZA9fO2aPQevKYIDiKrvMsfhjslWRlIXjG9ub/PchUI0hZvIrsf+NQMu0Xwza7cB5ilD0QWZjNZYGbN7mRWMAYn64gjuSW5M7AoMsQx7pFA+uUj6Wp/0hwPpdGK+A0MjyAQk2weor21JgM6P5H2QOvpLOoX1SCLvKBP62q/M8en0kiXaxxgQsN0p0G2j5bnciKPkhMYLykM3qYHtVf5pmRQMtQO/NO6+p89Zkoj1VWgP2ssmUuDavYt9brOX9Wdag2CsmUtOEzg9vrApfZPfCpWsoQzXZrEYDOt4dxkp8Qn5FOdtxEik3CFkYA3eHYTLU4FHr54H3el4WyCFjvsbHS5k7doI/mZ6bQULYPznGGiw4PYkiMcZa2X67v6+DFQGvwYSphocZBPg7jD0f9a5Oaru0HPD6V9NhGih+d0gi1NwlNTk7TPUOv1t/p4vV5cAsFdxnYYaOFbRCYDLXcJMSwVB577cvRxZrnhcnytnDvwOqVtIzFSk+kzKSM4hwQBK/8NGHcCx4jSVLx4E/0H0YLGmDfOkjaEU9MRW6j7nCzHKbIxf7FlQm2cpZKdHvTDgvToWhET4YVoJpo3yIbyU8o3eDx+xhiqrtUpPM1NipengVKkiJfSWY0rIVRrVtEBhRVgKB/WmyFunseKolgDmFdWcw8kFUjOok+IElA6H5XyQ3hypIl2J0xbOZhsJd4B/gQOgQ3ak429h+ItL8+1RYJ49rDcm+erClQB9UCzJpXPeijtLoOQ12XWOXA/unCaqqPxDJokgiA1rxeSXgMz0+Q9ZMR4dh+rsE4JsblVYUer9NVjtpqifLGimKTDsoPP2vGdFRwbH9JMhdAJYbiJw5OC5zadb/XT10XMTNoL1KmCclPLAE+YtFP6SOs7/ZdMyk7y3ord8qlBov1XKCeDcH8y6rs6bYBrQ12pcPQbKUvZja1AGalOhAUJUZxgh7z9aPBM6UGnWQqzDT1N0C765DNzfDJgARkll7MHArdR3afYOukcxbIFK34PSQxQetvqC9SJ60InULenYr8K8nnYtTdWpZDhIqgnF71kGKyFMExZXjAW88hwCGshRb8re3iseOzzOKmABWGiBbNxJX7RscQViY+zxEOxQZYzE1NqNiWkjiHzudh9L0geGSUDBfOpCFyHGDZdbyfpvGQ7z6pUtgP+FQFpVrgxZCyB93djd+7uxwLT0/kOz6sp9ege2jxRxrDBkho2nESQMGY2MY09t3ZbbBeFhJuIji8drmcRA9qNNEFC3u5ynNGpGqqCYymv794ShLrBGcBVqbaaSurnIM93iv0m5szE4HzzQCrdCNBSkZ49+IpO1aaHHGZP4zxypGgj8ZntJVZLwuwif7rIQp0N3BuXl+iuMGbSUmYuSSigJ7p56pOO2B/6NRgNPPZrz8rCDG2Jmo0IMT0SonyR8TfT/IbW6wYiJTupKM7l6jrg8MO9aaSov7rQQz2IJOq8qexjEGUj0BsPsXjSzPkPm46myhnGg5cAAAAASUVORK5CYII=;labelPosition=center;verticalLabelPosition=bottom;align=center;verticalAlign=top;spacingTop=2;" parent="1" vertex="1">
                    <mxGeometry x="373" y="347" width="110.15" height="62" as="geometry"/>
                </mxCell>
                <mxCell id="swq4_WMoCDQynXBAzhwi-24" value="" style="endArrow=classic;html=1;entryX=0.75;entryY=0;entryDx=0;entryDy=0;" parent="1" source="rbMpHbroR3ne59Me33Iv-1" target="swq4_WMoCDQynXBAzhwi-22" edge="1">
                    <mxGeometry width="50" height="50" relative="1" as="geometry">
                        <mxPoint x="79" y="720" as="sourcePoint"/>
                        <mxPoint x="129" y="670" as="targetPoint"/>
                    </mxGeometry>
                </mxCell>
                <mxCell id="swq4_WMoCDQynXBAzhwi-30" value="1" style="ellipse;whiteSpace=wrap;html=1;aspect=fixed;fillColor=#4D9900;strokeColor=none;labelBackgroundColor=none;" parent="1" vertex="1">
                    <mxGeometry x="187" y="378.09000000000003" width="23" height="23" as="geometry"/>
                </mxCell>
                <mxCell id="swq4_WMoCDQynXBAzhwi-31" style="edgeStyle=orthogonalEdgeStyle;rounded=0;orthogonalLoop=1;jettySize=auto;html=1;entryX=0.5;entryY=1;entryDx=0;entryDy=0;entryPerimeter=0;endArrow=none;endFill=0;" parent="1" source="rbMpHbroR3ne59Me33Iv-5" target="swq4_WMoCDQynXBAzhwi-30" edge="1">
                    <mxGeometry relative="1" as="geometry">
                        <mxPoint x="198.5" y="491.01" as="sourcePoint"/>
                        <mxPoint x="198.5" y="284" as="targetPoint"/>
                    </mxGeometry>
                </mxCell>
                <mxCell id="swq4_WMoCDQynXBAzhwi-32" value="4" style="ellipse;whiteSpace=wrap;html=1;aspect=fixed;fillColor=#4D9900;strokeColor=none;labelBackgroundColor=none;" parent="1" vertex="1">
                    <mxGeometry x="403" y="247.5" width="23" height="23" as="geometry"/>
                </mxCell>
                <mxCell id="swq4_WMoCDQynXBAzhwi-33" style="edgeStyle=orthogonalEdgeStyle;rounded=0;orthogonalLoop=1;jettySize=auto;html=1;endArrow=none;endFill=0;" parent="1" source="rbMpHbroR3ne59Me33Iv-1" target="swq4_WMoCDQynXBAzhwi-32" edge="1">
                    <mxGeometry relative="1" as="geometry">
                        <mxPoint x="368.25" y="259" as="sourcePoint"/>
                        <mxPoint x="462.75" y="259" as="targetPoint"/>
                    </mxGeometry>
                </mxCell>
                <mxCell id="swq4_WMoCDQynXBAzhwi-27" value="" style="endArrow=classic;html=1;exitX=0.275;exitY=0.016;exitDx=0;exitDy=0;exitPerimeter=0;" parent="1" source="swq4_WMoCDQynXBAzhwi-23" target="rbMpHbroR3ne59Me33Iv-1" edge="1">
                    <mxGeometry width="50" height="50" relative="1" as="geometry">
                        <mxPoint x="400" y="345.3499999999999" as="sourcePoint"/>
                        <mxPoint x="298.8125" y="358.92999999999984" as="targetPoint"/>
                    </mxGeometry>
                </mxCell>
                <mxCell id="rbMpHbroR3ne59Me33Iv-1" value="GitHub" style="dashed=0;outlineConnect=0;html=1;align=center;labelPosition=center;verticalLabelPosition=bottom;verticalAlign=top;shape=mxgraph.weblogos.github;labelBackgroundColor=#ffffff;spacingTop=4;" parent="1" vertex="1">
                    <mxGeometry x="323.25" y="236.5" width="45" height="45" as="geometry"/>
                </mxCell>
                <mxCell id="swq4_WMoCDQynXBAzhwi-36" style="edgeStyle=orthogonalEdgeStyle;rounded=0;orthogonalLoop=1;jettySize=auto;html=1;endArrow=classic;endFill=1;entryX=0.254;entryY=0.5;entryDx=0;entryDy=0;entryPerimeter=0;" parent="1" source="swq4_WMoCDQynXBAzhwi-22" target="swq4_WMoCDQynXBAzhwi-23" edge="1">
                    <mxGeometry relative="1" as="geometry">
                        <Array as="points">
                            <mxPoint x="334" y="378"/>
                        </Array>
                    </mxGeometry>
                </mxCell>
                <mxCell id="swq4_WMoCDQynXBAzhwi-38" value="2" style="ellipse;whiteSpace=wrap;html=1;aspect=fixed;fillColor=#4D9900;strokeColor=none;labelBackgroundColor=none;" parent="1" vertex="1">
                    <mxGeometry x="262.69000000000005" y="246.6" width="23" height="23" as="geometry"/>
                </mxCell>
                <mxCell id="swq4_WMoCDQynXBAzhwi-40" style="edgeStyle=orthogonalEdgeStyle;rounded=0;orthogonalLoop=1;jettySize=auto;html=1;endArrow=none;endFill=0;" parent="1" source="8ws5QArpv4ClrEHblM27-17" target="swq4_WMoCDQynXBAzhwi-38" edge="1">
                    <mxGeometry relative="1" as="geometry">
                        <mxPoint x="222.25" y="259" as="sourcePoint"/>
                        <mxPoint x="323.25" y="259" as="targetPoint"/>
                        <Array as="points">
                            <mxPoint x="243" y="258"/>
                            <mxPoint x="243" y="258"/>
                        </Array>
                    </mxGeometry>
                </mxCell>
                <mxCell id="swq4_WMoCDQynXBAzhwi-47" value="7" style="ellipse;whiteSpace=wrap;html=1;aspect=fixed;fillColor=#4D9900;strokeColor=none;labelBackgroundColor=none;" parent="1" vertex="1">
                    <mxGeometry x="593" y="399.09000000000003" width="23" height="23" as="geometry"/>
                </mxCell>
                <mxCell id="swq4_WMoCDQynXBAzhwi-48" style="edgeStyle=elbowEdgeStyle;rounded=0;orthogonalLoop=1;jettySize=auto;elbow=vertical;html=1;startArrow=none;startFill=0;endArrow=none;endFill=0;" parent="1" target="swq4_WMoCDQynXBAzhwi-47" edge="1">
                    <mxGeometry relative="1" as="geometry">
                        <mxPoint x="493" y="300" as="sourcePoint"/>
                        <mxPoint x="743" y="410" as="targetPoint"/>
                        <Array as="points">
                            <mxPoint x="558" y="410"/>
                            <mxPoint x="553" y="413"/>
                            <mxPoint x="543" y="413"/>
                        </Array>
                    </mxGeometry>
                </mxCell>
                <mxCell id="rbMpHbroR3ne59Me33Iv-7" value="Azure Pipelines" style="shape=image;verticalLabelPosition=bottom;verticalAlign=top;imageAspect=0;aspect=fixed;image=data:image/svg+xml,PHN2ZyB4bWxuczpkYz0iaHR0cDovL3B1cmwub3JnL2RjL2VsZW1lbnRzLzEuMS8iIHhtbG5zOmNjPSJodHRwOi8vY3JlYXRpdmVjb21tb25zLm9yZy9ucyMiIHhtbG5zOnJkZj0iaHR0cDovL3d3dy53My5vcmcvMTk5OS8wMi8yMi1yZGYtc3ludGF4LW5zIyIgeG1sbnM6c3ZnPSJodHRwOi8vd3d3LnczLm9yZy8yMDAwL3N2ZyIgeG1sbnM9Imh0dHA6Ly93d3cudzMub3JnLzIwMDAvc3ZnIiB4bWxuczpzb2RpcG9kaT0iaHR0cDovL3NvZGlwb2RpLnNvdXJjZWZvcmdlLm5ldC9EVEQvc29kaXBvZGktMC5kdGQiIHhtbG5zOmlua3NjYXBlPSJodHRwOi8vd3d3Lmlua3NjYXBlLm9yZy9uYW1lc3BhY2VzL2lua3NjYXBlIiB3aWR0aD0iNDkiIGhlaWdodD0iNDkiIHZpZXdCb3g9IjAgMCA0OSA0OSIgZmlsbD0ibm9uZSIgdmVyc2lvbj0iMS4xIiBpZD0ic3ZnNjE0NSIgc29kaXBvZGk6ZG9jbmFtZT0iQXp1cmUgUGlwZWxpbmVzLnN2ZyIgaW5rc2NhcGU6dmVyc2lvbj0iMC45Mi4zICgyNDA1NTQ2LCAyMDE4LTAzLTExKSI+JiN4YTsgIDxtZXRhZGF0YSBpZD0ibWV0YWRhdGE2MTUxIj4mI3hhOyAgICA8cmRmOlJERj4mI3hhOyAgICAgIDxjYzpXb3JrIHJkZjphYm91dD0iIj4mI3hhOyAgICAgICAgPGRjOmZvcm1hdD5pbWFnZS9zdmcreG1sPC9kYzpmb3JtYXQ+JiN4YTsgICAgICAgIDxkYzp0eXBlIHJkZjpyZXNvdXJjZT0iaHR0cDovL3B1cmwub3JnL2RjL2RjbWl0eXBlL1N0aWxsSW1hZ2UiLz4mI3hhOyAgICAgICAgPGRjOnRpdGxlLz4mI3hhOyAgICAgIDwvY2M6V29yaz4mI3hhOyAgICA8L3JkZjpSREY+JiN4YTsgIDwvbWV0YWRhdGE+JiN4YTsgIDxkZWZzIGlkPSJkZWZzNjE0OSIvPiYjeGE7ICA8c29kaXBvZGk6bmFtZWR2aWV3IHBhZ2Vjb2xvcj0iI2ZmZmZmZiIgYm9yZGVyY29sb3I9IiM2NjY2NjYiIGJvcmRlcm9wYWNpdHk9IjEiIG9iamVjdHRvbGVyYW5jZT0iMTAiIGdyaWR0b2xlcmFuY2U9IjEwIiBndWlkZXRvbGVyYW5jZT0iMTAiIGlua3NjYXBlOnBhZ2VvcGFjaXR5PSIwIiBpbmtzY2FwZTpwYWdlc2hhZG93PSIyIiBpbmtzY2FwZTp3aW5kb3ctd2lkdGg9IjY0MCIgaW5rc2NhcGU6d2luZG93LWhlaWdodD0iNDgwIiBpZD0ibmFtZWR2aWV3NjE0NyIgc2hvd2dyaWQ9ImZhbHNlIiBpbmtzY2FwZTp6b29tPSI2LjM4Nzc1NTEiIGlua3NjYXBlOmN4PSIyNC41IiBpbmtzY2FwZTpjeT0iMjQuNSIgaW5rc2NhcGU6d2luZG93LXg9IjAiIGlua3NjYXBlOndpbmRvdy15PSIwIiBpbmtzY2FwZTp3aW5kb3ctbWF4aW1pemVkPSIxIiBpbmtzY2FwZTpjdXJyZW50LWxheWVyPSJzdmc2MTQ1Ii8+JiN4YTsgIDxwYXRoIGQ9Ik0xNy4xNjcxIDQxLjk1ODhMMjMuNjU5MSA0OC40NTA4SDM0LjE5NTFDMzUuNDc5MSA0OC40NTA4IDM2LjUxMTEgNDcuNDA2OCAzNi41MTExIDQ2LjEzNDhWMjEuNzk4OEwxNy4xNjcxIDQxLjE1NDhDMTYuOTM5MSA0MS4zNzA4IDE2LjkzOTEgNDEuNzMwOCAxNy4xNjcxIDQxLjk1ODhaIiBmaWxsPSIjMjM1REMxIiBpZD0icGF0aDYxMzEiLz4mI3hhOyAgPHBhdGggZD0iTTAuNjQ0NTMxIDE0LjkwMjJWMjUuNDM4Mkw3LjEzNjUyIDMxLjkzMDJDNy4zNjQ1MiAzMi4xNTgyIDcuNzI0NTIgMzIuMTU4MiA3Ljk0MDUyIDMxLjkzMDJMMjcuMjk2NSAxMi41NzQySDIuOTYwNTNDMS42ODg1MyAxMi41NzQyIDAuNjQ0NTMxIDEzLjYxODIgMC42NDQ1MzEgMTQuOTAyMloiIGZpbGw9IiMzQjZFQzYiIGlkPSJwYXRoNjEzMyIvPiYjeGE7ICA8cGF0aCBkPSJNMjUuMDA0IDMuMTA0MjVMOS4zODAwNSAyNy4wMDgyQzguODUyMDUgMjcuODI0MiA4Ljk2MDA1IDI4Ljg5MjIgOS42NDQwNSAyOS41NzYyTDE5LjY1MiAzOS41ODQyQzIwLjMzNiA0MC4yNjgyIDIxLjQxNiA0MC4zNzYyIDIyLjIyIDM5Ljg0ODJMNDYuMTI0IDI0LjIxMjJDNDcuNjQ4IDIzLjIxNjIgNDguNTYgMjEuNTEyMiA0OC41NiAxOS43MDAyVjMuMDMyMjVDNDguNTYgMS43MjQyNSA0Ny40OTIgMC42NTYyNSA0Ni4xODQgMC42NTYyNUgyOS41MjhDMjcuNzA0IDAuNjU2MjUgMjYuMDEyIDEuNTgwMjUgMjUuMDA0IDMuMTA0MjVaIiBmaWxsPSIjNUQ4REU0IiBpZD0icGF0aDYxMzUiLz4mI3hhOyAgPHBhdGggZD0iTTQuMTYwNTIgNDUuMTY0OFYzNi43MTY4SDAuNjQ0NTMxVjQ4LjUwMDhIMTIuNjA4NVY0NS4xNjQ4SDQuMTYwNTJaIiBmaWxsPSIjOUZCQkYwIiBpZD0icGF0aDYxMzciLz4mI3hhOyAgPHBhdGggZD0iTTM2LjU2OTIgMTguMzY2OUMzOS44NTY0IDE4LjM2NjkgNDIuNTIxMiAxNS43MDIxIDQyLjUyMTIgMTIuNDE0OUM0Mi41MjEyIDkuMTI3NjkgMzkuODU2NCA2LjQ2Mjg5IDM2LjU2OTIgNi40NjI4OUMzMy4yODIgNi40NjI4OSAzMC42MTcyIDkuMTI3NjkgMzAuNjE3MiAxMi40MTQ5QzMwLjYxNzIgMTUuNzAyMSAzMy4yODIgMTguMzY2OSAzNi41NjkyIDE4LjM2NjlaIiBmaWxsPSIjQURDNUYyIiBpZD0icGF0aDYxMzkiLz4mI3hhOyAgPHBhdGggZD0iTTI1LjkxNTMgMjAuMzg5NEwxMy4xODc1IDMzLjExNzJMMTYuMTIzNCAzNi4wNTMxTDI4Ljg1MTEgMjMuMzI1M0wyNS45MTUzIDIwLjM4OTRaIiBmaWxsPSIjNkM5QUVFIiBpZD0icGF0aDYxNDEiLz4mI3hhOyAgPHBhdGggZD0iTTEzLjU4ODYgMzguNTg1MkwxNi4xMTcyIDM2LjA1NjZMMTMuMTgxMyAzMy4xMjA4TDEwLjY1MjcgMzUuNjQ5NEwxMy41ODg2IDM4LjU4NTJaIiBmaWxsPSIjODhBQ0VGIiBpZD0icGF0aDYxNDMiLz4mI3hhOzwvc3ZnPg==;labelBackgroundColor=#FFFFFF;spacingTop=4;" parent="1" vertex="1">
                    <mxGeometry x="474.75" y="236.5" width="45" height="45" as="geometry"/>
                </mxCell>
                <mxCell id="swq4_WMoCDQynXBAzhwi-52" value="5" style="ellipse;whiteSpace=wrap;html=1;aspect=fixed;fillColor=#4D9900;strokeColor=none;labelBackgroundColor=none;" parent="1" vertex="1">
                    <mxGeometry x="570" y="247.50000000000003" width="23" height="23" as="geometry"/>
                </mxCell>
                <mxCell id="swq4_WMoCDQynXBAzhwi-53" style="edgeStyle=orthogonalEdgeStyle;rounded=0;orthogonalLoop=1;jettySize=auto;html=1;endArrow=none;endFill=0;" parent="1" source="rbMpHbroR3ne59Me33Iv-7" target="swq4_WMoCDQynXBAzhwi-52" edge="1">
                    <mxGeometry relative="1" as="geometry">
                        <mxPoint x="519.75" y="258.9999999999999" as="sourcePoint"/>
                        <mxPoint x="635.9799999999998" y="258.9999999999999" as="targetPoint"/>
                    </mxGeometry>
                </mxCell>
                <mxCell id="swq4_WMoCDQynXBAzhwi-55" value="8" style="ellipse;whiteSpace=wrap;html=1;aspect=fixed;fillColor=#4D9900;strokeColor=none;labelBackgroundColor=none;" parent="1" vertex="1">
                    <mxGeometry x="743.0000000000002" y="247.50500000000008" width="23" height="23" as="geometry"/>
                </mxCell>
                <mxCell id="swq4_WMoCDQynXBAzhwi-56" style="edgeStyle=orthogonalEdgeStyle;rounded=0;orthogonalLoop=1;jettySize=auto;html=1;endArrow=none;endFill=0;" parent="1" source="rbMpHbroR3ne59Me33Iv-14" target="swq4_WMoCDQynXBAzhwi-55" edge="1">
                    <mxGeometry relative="1" as="geometry">
                        <Array as="points"/>
                        <mxPoint x="695.9799999999998" y="259.0000000000001" as="sourcePoint"/>
                        <mxPoint x="812.7549999999999" y="259.0000000000001" as="targetPoint"/>
                    </mxGeometry>
                </mxCell>
                <mxCell id="swq4_WMoCDQynXBAzhwi-57" value="10" style="ellipse;whiteSpace=wrap;html=1;aspect=fixed;fillColor=#4D9900;strokeColor=none;labelBackgroundColor=none;" parent="1" vertex="1">
                    <mxGeometry x="831.6600000000002" y="167.09000000000003" width="23" height="23" as="geometry"/>
                </mxCell>
                <mxCell id="swq4_WMoCDQynXBAzhwi-58" style="edgeStyle=orthogonalEdgeStyle;rounded=0;orthogonalLoop=1;jettySize=auto;html=1;endArrow=none;endFill=0;" parent="1" source="rbMpHbroR3ne59Me33Iv-11" target="swq4_WMoCDQynXBAzhwi-57" edge="1">
                    <mxGeometry relative="1" as="geometry">
                        <mxPoint x="842.6666666666667" y="135" as="sourcePoint"/>
                        <mxPoint x="842.6666666666667" y="236.10000000000014" as="targetPoint"/>
                        <Array as="points">
                            <mxPoint x="843" y="155"/>
                        </Array>
                    </mxGeometry>
                </mxCell>
                <mxCell id="rbMpHbroR3ne59Me33Iv-11" value="Key Vault" style="aspect=fixed;html=1;points=[];align=center;image;fontSize=12;image=img/lib/mscae/Key_Vaults.svg;" parent="1" vertex="1">
                    <mxGeometry x="821.0599999999998" y="90" width="43.2" height="45" as="geometry"/>
                </mxCell>
                <mxCell id="swq4_WMoCDQynXBAzhwi-59" style="edgeStyle=orthogonalEdgeStyle;rounded=0;orthogonalLoop=1;jettySize=auto;html=1;exitX=0.5;exitY=0;exitDx=0;exitDy=0;exitPerimeter=0;endArrow=classic;endFill=1;" parent="1" source="swq4_WMoCDQynXBAzhwi-67" target="swq4_WMoCDQynXBAzhwi-2" edge="1">
                    <mxGeometry relative="1" as="geometry">
                        <Array as="points">
                            <mxPoint x="843" y="480"/>
                            <mxPoint x="843" y="480"/>
                        </Array>
                    </mxGeometry>
                </mxCell>
                <mxCell id="swq4_WMoCDQynXBAzhwi-2" value="Application&lt;br&gt;Gateway" style="aspect=fixed;html=1;points=[];align=center;image;fontSize=12;image=img/lib/mscae/Application_Gateway.svg;labelBackgroundColor=#F2F2F2;spacingTop=4;" parent="1" vertex="1">
                    <mxGeometry x="818.1599999999999" y="359" width="50" height="50" as="geometry"/>
                </mxCell>
                <mxCell id="swq4_WMoCDQynXBAzhwi-62" value="9" style="ellipse;whiteSpace=wrap;html=1;aspect=fixed;fillColor=#4D9900;strokeColor=none;labelBackgroundColor=none;" parent="1" vertex="1">
                    <mxGeometry x="670.4800000000002" y="167.59000000000003" width="23" height="23" as="geometry"/>
                </mxCell>
                <mxCell id="swq4_WMoCDQynXBAzhwi-63" style="edgeStyle=orthogonalEdgeStyle;rounded=0;orthogonalLoop=1;jettySize=auto;html=1;exitX=0;exitY=0.5;exitDx=0;exitDy=0;endArrow=none;endFill=0;" parent="1" source="rbMpHbroR3ne59Me33Iv-32" target="swq4_WMoCDQynXBAzhwi-62" edge="1">
                    <mxGeometry relative="1" as="geometry">
                        <mxPoint x="715.98" y="112.5" as="sourcePoint"/>
                        <mxPoint x="682" y="233.20000000000005" as="targetPoint"/>
                    </mxGeometry>
                </mxCell>
                <mxCell id="swq4_WMoCDQynXBAzhwi-64" value="9" style="ellipse;whiteSpace=wrap;html=1;aspect=fixed;fillColor=#4D9900;strokeColor=none;labelBackgroundColor=none;" parent="1" vertex="1">
                    <mxGeometry x="761.8400000000003" y="167.59000000000003" width="23" height="23" as="geometry"/>
                </mxCell>
                <mxCell id="swq4_WMoCDQynXBAzhwi-65" style="edgeStyle=orthogonalEdgeStyle;rounded=0;orthogonalLoop=1;jettySize=auto;html=1;endArrow=none;endFill=0;" parent="1" source="rbMpHbroR3ne59Me33Iv-32" target="swq4_WMoCDQynXBAzhwi-64" edge="1">
                    <mxGeometry relative="1" as="geometry">
                        <mxPoint x="742.98" y="112.5" as="sourcePoint"/>
                        <mxPoint x="812.7550000000001" y="240" as="targetPoint"/>
                        <Array as="points"/>
                    </mxGeometry>
                </mxCell>
                <mxCell id="swq4_WMoCDQynXBAzhwi-71" style="edgeStyle=elbowEdgeStyle;rounded=0;orthogonalLoop=1;jettySize=auto;html=1;exitX=0.5;exitY=1;exitDx=0;exitDy=0;endArrow=none;endFill=0;" parent="1" source="swq4_WMoCDQynXBAzhwi-67" target="rbMpHbroR3ne59Me33Iv-30" edge="1">
                    <mxGeometry relative="1" as="geometry"/>
                </mxCell>
                <mxCell id="swq4_WMoCDQynXBAzhwi-67" value="11" style="ellipse;whiteSpace=wrap;html=1;aspect=fixed;fillColor=#4D9900;strokeColor=none;labelBackgroundColor=none;" parent="1" vertex="1">
                    <mxGeometry x="831.1600000000002" y="491.01000000000005" width="23" height="23" as="geometry"/>
                </mxCell>
                <mxCell id="swq4_WMoCDQynXBAzhwi-73" value="12" style="ellipse;whiteSpace=wrap;html=1;aspect=fixed;fillColor=#4D9900;strokeColor=none;labelBackgroundColor=none;" parent="1" vertex="1">
                    <mxGeometry x="913.0000000000002" y="330.00000000000006" width="23" height="23" as="geometry"/>
                </mxCell>
                <mxCell id="swq4_WMoCDQynXBAzhwi-74" style="edgeStyle=elbowEdgeStyle;rounded=0;orthogonalLoop=1;jettySize=auto;html=1;endArrow=none;endFill=0;entryX=0.5;entryY=1;entryDx=0;entryDy=0;exitX=0.012;exitY=0.503;exitDx=0;exitDy=0;exitPerimeter=0;" parent="1" source="DpS6iWFYVrVHI2XnOxSI-30" target="swq4_WMoCDQynXBAzhwi-73" edge="1">
                    <mxGeometry relative="1" as="geometry">
                        <mxPoint x="975" y="383.9999999999999" as="sourcePoint"/>
                        <mxPoint x="925" y="350" as="targetPoint"/>
                        <Array as="points">
                            <mxPoint x="925" y="370"/>
                            <mxPoint x="943" y="384"/>
                            <mxPoint x="925" y="370"/>
                            <mxPoint x="953" y="384"/>
                            <mxPoint x="925" y="370"/>
                        </Array>
                    </mxGeometry>
                </mxCell>
                <mxCell id="3" value="" style="shape=image;verticalLabelPosition=bottom;labelBackgroundColor=#ffffff;verticalAlign=top;aspect=fixed;imageAspect=0;image=data:image/svg+xml,PHN2ZyB4bWxucz0iaHR0cDovL3d3dy53My5vcmcvMjAwMC9zdmciIHhtbG5zOnhsaW5rPSJodHRwOi8vd3d3LnczLm9yZy8xOTk5L3hsaW5rIiB2aWV3Qm94PSIwIDAgMTggMTgiIGNsYXNzPSIiIHJvbGU9InByZXNlbnRhdGlvbiIgZm9jdXNhYmxlPSJmYWxzZSIgaWQ9IkZ4U3ltYm9sMC0wMDEiIGRhdGEtdHlwZT0iMSI+PGc+PHBhdGggZD0iTTE2LjA4MyA4LjQzOGMwIDQuNTcxLTUuNjI2IDguMjUtNi44NSA5YS40NDkuNDQ5IDAgMCAxLS40NjYgMGMtMS4yMjQtLjc0Ny02Ljg1LTQuNDI2LTYuODUtOXYtNS41YS40NC40NCAwIDAgMSAuNDM0LS40MzhDNi43MjggMi4zODYgNS43Mi41IDkgLjVzMi4yNzIgMS44ODYgNi42NDkgMmEuNDQuNDQgMCAwIDEgLjQzNC40MzV6IiBmaWxsPSIjNzZiYzJkIi8+PHBhdGggZD0iTTE1LjUgOC40ODVjMCA0LjE5MS01LjE2IDcuNTY2LTYuMjgyIDguMjVhLjQxMi40MTIgMCAwIDEtLjQyOCAwYy0xLjEyNi0uNjg0LTYuMjktNC4wNTktNi4yOS04LjI1VjMuNDQxYS40LjQgMCAwIDEgLjQtLjRDNi45MTYgMi45MzUgNS45OTIgMS4yMDUgOSAxLjIwNXMyLjA4NCAxLjczIDYuMSAxLjgzN2EuNC40IDAgMCAxIC40LjR6IiBmaWxsPSJ1cmwoIzk4MTAxMzEwMDA1MTMxMzgpIi8+PHBhdGggZD0iTTExLjg1MyA3LjY2aC0uNDA4VjYuMjQzYTIuNjUyIDIuNjUyIDAgMCAwLS43LTEuODA5IDIuMzU4IDIuMzU4IDAgMCAwLTMuNDgzIDAgMi42MDYgMi42MDYgMCAwIDAtLjcgMS44MDhWNy42NmgtLjQxNWEuMzI4LjMyOCAwIDAgMC0uMzI2LjMydjMuNjgyYS4zMjkuMzI5IDAgMCAwIC4zMjYuMzJoNS43MDZhLjMyOS4zMjkgMCAwIDAgLjMyNi0uMzJWNy45OGEuMzI4LjMyOCAwIDAgMC0uMzI2LS4zMnptLTEuNTQ5IDBINy43VjYuMjE5YTEuNDM0IDEuNDM0IDAgMCAxIC40MS0uOTkgMS4yIDEuMiAwIDAgMSAxLjc4OCAwIDEuMzk0IDEuMzk0IDAgMCAxIC4xNTMuMiAxLjQ0NSAxLjQ0NSAwIDAgMSAuMjU4Ljc5MXoiIGNsYXNzPSJtc3BvcnRhbGZ4LXN2Zy1jMDEiIGZpbGw9IiNmZmZmZmYiLz48cGF0aCBkPSJNNi4xNDggNy42NThoNS43MDVhLjMyOC4zMjggMCAwIDEgLjIxLjA4TDUuOTM4IDExLjlhLjMxMy4zMTMgMCAwIDEtLjExNi0uMjQxdi0zLjY4YS4zMjguMzI4IDAgMCAxIC4zMjYtLjMyMXoiIGZpbGw9IiNiM2IzYjMiIG9wYWNpdHk9Ii4xNSIvPjxwYXRoIGQ9Ik0xMS44NTMgNy42NThINi4xNDdhLjMyOC4zMjggMCAwIDAtLjIwOS4wOGw2LjEyNCA0LjE2MmEuMzE0LjMxNCAwIDAgMCAuMTE3LS4yNDF2LTMuNjhhLjMyOS4zMjkgMCAwIDAtLjMyNi0uMzIxeiIgZmlsbD0iI2EzYTNhMyIgb3BhY2l0eT0iLjA5Ii8+PC9nPjxkZWZzPiYjeGE7PGxpbmVhckdyYWRpZW50IGlkPSI5ODEwMTMxMDAwNTEzMTM4IiB4MT0iOSIgeTE9IjE2Ljc5NSIgeDI9IjkiIHkyPSIxLjIwNSIgZ3JhZGllbnRVbml0cz0idXNlclNwYWNlT25Vc2UiPjxzdG9wIG9mZnNldD0iMCIgc3RvcC1jb2xvcj0iIzVlOTYyNCIvPjxzdG9wIG9mZnNldD0iLjMyMSIgc3RvcC1jb2xvcj0iIzYzOWQyNiIvPjxzdG9wIG9mZnNldD0iLjc5NCIgc3RvcC1jb2xvcj0iIzZmYjEyYSIvPjxzdG9wIG9mZnNldD0iLjk5OSIgc3RvcC1jb2xvcj0iIzc2YmMyZCIvPjwvbGluZWFyR3JhZGllbnQ+JiN4YTs8L2RlZnM+JiN4YTs8L3N2Zz4=;" vertex="1" parent="1">
                    <mxGeometry x="922" y="88.5" width="46.5" height="46.5" as="geometry"/>
                </mxCell>
                <mxCell id="7" value="" style="endArrow=classic;html=1;edgeStyle=orthogonalEdgeStyle;elbow=vertical;rounded=0;entryX=0.5;entryY=0;entryDx=0;entryDy=0;exitX=0.5;exitY=0;exitDx=0;exitDy=0;" edge="1" parent="1" source="10" target="3">
                    <mxGeometry width="50" height="50" relative="1" as="geometry">
                        <mxPoint x="635.98" y="91" as="sourcePoint"/>
                        <mxPoint x="685.98" y="41" as="targetPoint"/>
                        <Array as="points">
                            <mxPoint x="641" y="50"/>
                            <mxPoint x="945" y="50"/>
                        </Array>
                    </mxGeometry>
                </mxCell>
                <mxCell id="8" style="edgeStyle=orthogonalEdgeStyle;rounded=0;orthogonalLoop=1;jettySize=auto;html=1;entryX=0.5;entryY=1;entryDx=0;entryDy=0;exitX=0.5;exitY=0;exitDx=0;exitDy=0;" edge="1" parent="1" source="13" target="3">
                    <mxGeometry relative="1" as="geometry">
                        <mxPoint x="968.5500000000002" y="141.59000000000003" as="sourcePoint"/>
                        <mxPoint x="1007.9650000000001" y="210" as="targetPoint"/>
                        <Array as="points"/>
                    </mxGeometry>
                </mxCell>
                <mxCell id="10" value="6" style="ellipse;whiteSpace=wrap;html=1;aspect=fixed;fillColor=#4D9900;strokeColor=none;labelBackgroundColor=none;" vertex="1" parent="1">
                    <mxGeometry x="630" y="167.59000000000003" width="23" height="23" as="geometry"/>
                </mxCell>
                <mxCell id="12" value="" style="endArrow=none;html=1;entryX=0.5;entryY=1;entryDx=0;entryDy=0;" edge="1" parent="1" target="10">
                    <mxGeometry width="50" height="50" relative="1" as="geometry">
                        <mxPoint x="642" y="230" as="sourcePoint"/>
                        <mxPoint x="680" y="170" as="targetPoint"/>
                    </mxGeometry>
                </mxCell>
                <mxCell id="13" value="13" style="ellipse;whiteSpace=wrap;html=1;aspect=fixed;fillColor=#4D9900;strokeColor=none;labelBackgroundColor=none;" vertex="1" parent="1">
                    <mxGeometry x="933.7500000000002" y="167.59000000000003" width="23" height="23" as="geometry"/>
                </mxCell>
                <mxCell id="14" style="edgeStyle=orthogonalEdgeStyle;rounded=0;orthogonalLoop=1;jettySize=auto;html=1;entryX=0.5;entryY=1;entryDx=0;entryDy=0;endArrow=none;endFill=0;" edge="1" parent="1" source="rbMpHbroR3ne59Me33Iv-15" target="13">
                    <mxGeometry relative="1" as="geometry">
                        <mxPoint x="1040.0200000000002" y="99.99999999999991" as="sourcePoint"/>
                        <mxPoint x="1079.4350000000004" y="156.41" as="targetPoint"/>
                        <Array as="points">
                            <mxPoint x="945" y="240"/>
                            <mxPoint x="945" y="200"/>
                        </Array>
                    </mxGeometry>
                </mxCell>
            </root>
        </mxGraphModel>
    </diagram>
    <diagram id="RwkDltP1fmm8R6AQ6Sx-" name="Page-2">
        <mxGraphModel dx="424" dy="978" grid="1" gridSize="10" guides="1" tooltips="1" connect="1" arrows="1" fold="1" page="1" pageScale="1" pageWidth="850" pageHeight="1100" math="0" shadow="0">
            <root>
                <mxCell id="k58ggMLH4YI6cPHUibI5-0"/>
                <mxCell id="k58ggMLH4YI6cPHUibI5-1" parent="k58ggMLH4YI6cPHUibI5-0"/>
                <mxCell id="k58ggMLH4YI6cPHUibI5-2" value="" style="rounded=0;whiteSpace=wrap;html=1;fillColor=#EAEDED;fontSize=22;fontColor=#FFFFFF;strokeColor=none;labelBackgroundColor=none;" parent="k58ggMLH4YI6cPHUibI5-1" vertex="1">
                    <mxGeometry x="1040" y="117.09" width="539" height="782.91" as="geometry"/>
                </mxCell>
                <mxCell id="k58ggMLH4YI6cPHUibI5-3" value="&lt;span&gt;Azure Active Directory (AD) can be configured as the identity provider for GitHub. Multi-factory authentication can be enabled for extra security&lt;br&gt;&lt;/span&gt;" style="text;html=1;align=left;verticalAlign=top;spacingTop=-4;fontSize=14;labelBackgroundColor=none;whiteSpace=wrap;" parent="k58ggMLH4YI6cPHUibI5-1" vertex="1">
                    <mxGeometry x="1107" y="128.59000000000003" width="449" height="41.41" as="geometry"/>
                </mxCell>
                <mxCell id="k58ggMLH4YI6cPHUibI5-4" value="&lt;span&gt;Pull Requests trigger CI builds and automated testing in Azure Pipelines&lt;/span&gt;" style="text;html=1;align=left;verticalAlign=top;spacingTop=-4;fontSize=14;labelBackgroundColor=none;whiteSpace=wrap;" parent="k58ggMLH4YI6cPHUibI5-1" vertex="1">
                    <mxGeometry x="1106.5" y="268.09000000000003" width="450" height="21" as="geometry"/>
                </mxCell>
                <mxCell id="k58ggMLH4YI6cPHUibI5-5" value="&lt;span&gt;Developers commit to HitHub, driven by work items and bugs from Azure Boards&lt;/span&gt;" style="text;html=1;align=left;verticalAlign=top;spacingTop=-4;fontSize=14;labelBackgroundColor=none;whiteSpace=wrap;" parent="k58ggMLH4YI6cPHUibI5-1" vertex="1">
                    <mxGeometry x="1106.5" y="176.18000000000006" width="450" height="36.91" as="geometry"/>
                </mxCell>
                <mxCell id="k58ggMLH4YI6cPHUibI5-6" value="&lt;span&gt;A release on Azure Pipelines integrates the Terraform tool, managing both the cloud infrastructure as code, provisioning&amp;nbsp;&lt;/span&gt;resources such as Azure Kubernetes Service, Application Gateway, and Azure Cosmos DB" style="text;html=1;align=left;verticalAlign=top;spacingTop=-4;fontSize=14;labelBackgroundColor=none;whiteSpace=wrap;" parent="k58ggMLH4YI6cPHUibI5-1" vertex="1">
                    <mxGeometry x="1107" y="412.7900000000001" width="449" height="69.5" as="geometry"/>
                </mxCell>
                <mxCell id="k58ggMLH4YI6cPHUibI5-7" value="&lt;span&gt;Azure Pipelines defines a continous deployment (CD) release to Azure Kubernetes Service by accessing the Container Registry through a secure service connection&lt;/span&gt;" style="text;html=1;align=left;verticalAlign=top;spacingTop=-4;fontSize=14;labelBackgroundColor=none;whiteSpace=wrap;" parent="k58ggMLH4YI6cPHUibI5-1" vertex="1">
                    <mxGeometry x="1107" y="487.59000000000003" width="449" height="53.41" as="geometry"/>
                </mxCell>
                <mxCell id="k58ggMLH4YI6cPHUibI5-8" value="1" style="ellipse;whiteSpace=wrap;html=1;aspect=fixed;fillColor=#4D9900;strokeColor=none;labelBackgroundColor=none;" parent="k58ggMLH4YI6cPHUibI5-1" vertex="1">
                    <mxGeometry x="1064.0000000000002" y="137.79500000000004" width="23" height="23" as="geometry"/>
                </mxCell>
                <mxCell id="k58ggMLH4YI6cPHUibI5-9" value="4" style="ellipse;whiteSpace=wrap;html=1;aspect=fixed;fillColor=#4D9900;strokeColor=none;labelBackgroundColor=none;" parent="k58ggMLH4YI6cPHUibI5-1" vertex="1">
                    <mxGeometry x="1064.0000000000002" y="267.09000000000003" width="23" height="23" as="geometry"/>
                </mxCell>
                <mxCell id="k58ggMLH4YI6cPHUibI5-10" value="2" style="ellipse;whiteSpace=wrap;html=1;aspect=fixed;fillColor=#4D9900;strokeColor=none;labelBackgroundColor=none;" parent="k58ggMLH4YI6cPHUibI5-1" vertex="1">
                    <mxGeometry x="1064.0000000000002" y="183.1350000000001" width="23" height="23" as="geometry"/>
                </mxCell>
                <mxCell id="k58ggMLH4YI6cPHUibI5-11" value="7" style="ellipse;whiteSpace=wrap;html=1;aspect=fixed;fillColor=#4D9900;strokeColor=none;labelBackgroundColor=none;" parent="k58ggMLH4YI6cPHUibI5-1" vertex="1">
                    <mxGeometry x="1064" y="436.03999999999996" width="23" height="23" as="geometry"/>
                </mxCell>
                <mxCell id="k58ggMLH4YI6cPHUibI5-12" value="8" style="ellipse;whiteSpace=wrap;html=1;aspect=fixed;fillColor=#4D9900;strokeColor=none;labelBackgroundColor=none;" parent="k58ggMLH4YI6cPHUibI5-1" vertex="1">
                    <mxGeometry x="1064.0000000000002" y="502.7950000000001" width="23" height="23" as="geometry"/>
                </mxCell>
                <mxCell id="k58ggMLH4YI6cPHUibI5-13" value="11" style="ellipse;whiteSpace=wrap;html=1;aspect=fixed;fillColor=#4D9900;strokeColor=none;labelBackgroundColor=none;" parent="k58ggMLH4YI6cPHUibI5-1" vertex="1">
                    <mxGeometry x="1064.0000000000002" y="671.09" width="23" height="23" as="geometry"/>
                </mxCell>
                <mxCell id="k58ggMLH4YI6cPHUibI5-16" value="&lt;span&gt;Azure Key Vault is used to securly inject secrets and credentials into a deployment, abstracting sensitive information away from developers&lt;/span&gt;" style="text;html=1;align=left;verticalAlign=top;spacingTop=-4;fontSize=14;labelBackgroundColor=none;whiteSpace=wrap;" parent="k58ggMLH4YI6cPHUibI5-1" vertex="1">
                    <mxGeometry x="1107.5" y="607" width="449" height="42" as="geometry"/>
                </mxCell>
                <mxCell id="k58ggMLH4YI6cPHUibI5-17" value="&lt;span&gt;End users can authenticate with Azure AD B2C, required to use MFA for extra security, and be routed through an Application Gateway which can load balance and protect core services&lt;/span&gt;" style="text;html=1;align=left;verticalAlign=top;spacingTop=-4;fontSize=14;labelBackgroundColor=none;whiteSpace=wrap;" parent="k58ggMLH4YI6cPHUibI5-1" vertex="1">
                    <mxGeometry x="1107.5" y="657.91" width="449" height="52" as="geometry"/>
                </mxCell>
                <mxCell id="k58ggMLH4YI6cPHUibI5-18" value="Azure Policy can be applied to Azure Pipelines to enforce post-deployment gateways, and can be applied directly to the AKS engine for policy enforcement" style="text;html=1;align=left;verticalAlign=top;spacingTop=-4;fontSize=14;labelBackgroundColor=none;whiteSpace=wrap;" parent="k58ggMLH4YI6cPHUibI5-1" vertex="1">
                    <mxGeometry x="1107.5" y="546" width="449" height="52" as="geometry"/>
                </mxCell>
                <mxCell id="k58ggMLH4YI6cPHUibI5-19" value="3" style="ellipse;whiteSpace=wrap;html=1;aspect=fixed;fillColor=#4D9900;strokeColor=none;labelBackgroundColor=none;" parent="k58ggMLH4YI6cPHUibI5-1" vertex="1">
                    <mxGeometry x="1064.0000000000002" y="226.5999999999998" width="23" height="23" as="geometry"/>
                </mxCell>
                <mxCell id="k58ggMLH4YI6cPHUibI5-20" value="&lt;span&gt;Continuous monitoring with Azure Monitor extends to release pipelines to gate or rollback releases based on monitoring data. Azure Monitor also ingests security logs and can alert on suspicious activity&lt;/span&gt;" style="text;html=1;align=left;verticalAlign=top;spacingTop=-4;fontSize=14;labelBackgroundColor=none;whiteSpace=wrap;" parent="k58ggMLH4YI6cPHUibI5-1" vertex="1">
                    <mxGeometry x="1107.5" y="719.545" width="449" height="52.91" as="geometry"/>
                </mxCell>
                <mxCell id="k58ggMLH4YI6cPHUibI5-21" value="&lt;span&gt;GitHub can integrate automatic security and dependency scanning through GitHub Advanced Security and GitHub Open Source Security&lt;/span&gt;" style="text;html=1;align=left;verticalAlign=top;spacingTop=-4;fontSize=14;labelBackgroundColor=none;whiteSpace=wrap;" parent="k58ggMLH4YI6cPHUibI5-1" vertex="1">
                    <mxGeometry x="1106.9999999999998" y="219.60000000000002" width="449" height="37" as="geometry"/>
                </mxCell>
                <mxCell id="k58ggMLH4YI6cPHUibI5-22" value="9" style="ellipse;whiteSpace=wrap;html=1;aspect=fixed;fillColor=#4D9900;strokeColor=none;labelBackgroundColor=none;" parent="k58ggMLH4YI6cPHUibI5-1" vertex="1">
                    <mxGeometry x="1064.0000000000002" y="558.09" width="23" height="23" as="geometry"/>
                </mxCell>
                <mxCell id="k58ggMLH4YI6cPHUibI5-23" value="10" style="ellipse;whiteSpace=wrap;html=1;aspect=fixed;fillColor=#4D9900;strokeColor=none;labelBackgroundColor=none;" parent="k58ggMLH4YI6cPHUibI5-1" vertex="1">
                    <mxGeometry x="1064.0000000000002" y="613.0900000000001" width="23" height="23" as="geometry"/>
                </mxCell>
                <mxCell id="k58ggMLH4YI6cPHUibI5-24" value="5" style="ellipse;whiteSpace=wrap;html=1;aspect=fixed;fillColor=#4D9900;strokeColor=none;labelBackgroundColor=none;" parent="k58ggMLH4YI6cPHUibI5-1" vertex="1">
                    <mxGeometry x="1064" y="316.03999999999996" width="23" height="23" as="geometry"/>
                </mxCell>
                <mxCell id="k58ggMLH4YI6cPHUibI5-25" value="&lt;span&gt;The CI build in Azure Pipelines generates a Docker container image that is stored to Azure Container Registry, which is to be used at release time by Azure Kubernetes Service&lt;/span&gt;" style="text;html=1;align=left;verticalAlign=top;spacingTop=-4;fontSize=14;labelBackgroundColor=none;whiteSpace=wrap;" parent="k58ggMLH4YI6cPHUibI5-1" vertex="1">
                    <mxGeometry x="1107.0000000000002" y="299.53999999999974" width="449" height="56" as="geometry"/>
                </mxCell>
                <mxCell id="k58ggMLH4YI6cPHUibI5-26" value="12" style="ellipse;whiteSpace=wrap;html=1;aspect=fixed;fillColor=#4D9900;strokeColor=none;labelBackgroundColor=none;" parent="k58ggMLH4YI6cPHUibI5-1" vertex="1">
                    <mxGeometry x="1064.0000000000002" y="734.5" width="23" height="23" as="geometry"/>
                </mxCell>
                <mxCell id="I4avvgQ1HcumX8tOmWuJ-0" value="6" style="ellipse;whiteSpace=wrap;html=1;aspect=fixed;fillColor=#4D9900;strokeColor=none;labelBackgroundColor=none;" vertex="1" parent="k58ggMLH4YI6cPHUibI5-1">
                    <mxGeometry x="1064.5" y="373.49999999999994" width="23" height="23" as="geometry"/>
                </mxCell>
                <mxCell id="I4avvgQ1HcumX8tOmWuJ-1" value="Upon uploading to the Azure Container Registry, Azure Security Center will scan the image for Azure-native vulnerabilities and for security recommendations for the pushed image" style="text;html=1;align=left;verticalAlign=top;spacingTop=-4;fontSize=14;labelBackgroundColor=none;whiteSpace=wrap;" vertex="1" parent="k58ggMLH4YI6cPHUibI5-1">
                    <mxGeometry x="1107.5000000000002" y="356.9999999999997" width="449" height="56" as="geometry"/>
                </mxCell>
                <mxCell id="I4avvgQ1HcumX8tOmWuJ-2" value="As addition and final part of a DevSecOps flow, Azure Security Center will be able to do active threat monitoring on the Azure Kubernetes Service, on both Node level (VM threats) and internals" style="text;html=1;align=left;verticalAlign=top;spacingTop=-4;fontSize=14;labelBackgroundColor=none;whiteSpace=wrap;" vertex="1" parent="k58ggMLH4YI6cPHUibI5-1">
                    <mxGeometry x="1108" y="779.995" width="449" height="52.91" as="geometry"/>
                </mxCell>
                <mxCell id="I4avvgQ1HcumX8tOmWuJ-3" value="13" style="ellipse;whiteSpace=wrap;html=1;aspect=fixed;fillColor=#4D9900;strokeColor=none;labelBackgroundColor=none;" vertex="1" parent="k58ggMLH4YI6cPHUibI5-1">
                    <mxGeometry x="1064.5000000000002" y="794.95" width="23" height="23" as="geometry"/>
                </mxCell>
            </root>
        </mxGraphModel>
    </diagram>
</mxfile>